<svg id="e58r8bw4afv71" xmlns="http://www.w3.org/2000/svg" xmlns:xlink="http://www.w3.org/1999/xlink" viewBox="0 0 240 220" shape-rendering="geometricPrecision" text-rendering="geometricPrecision"><g id="e58r8bw4afv72" transform="matrix(0 0 0 0 120 120)"><path id="e58r8bw4afv73" d="M331.028000,246.986000L285.892000,246.986000C279.059000,246.986000,273.469000,241.396000,273.469000,234.563000L267.258000,129.298000C267.258000,129.298000,257.207000,42.104000,309.340000,30.646000C309.340000,30.646000,330.537000,-10.602000,398.423000,2.613000C399.351000,2.794000,400.243000,3.127000,401.144000,3.406000C416.783000,8.257000,431.322000,16.840000,443.410000,28.866000C480.380000,65.654000,472.946000,109.118000,473.873000,114.524000C473.873000,144.721000,474.350000,111.157000,467.662000,234.564000C467.662000,241.397000,462.072000,246.987000,455.239000,246.987000L407.220000,246.987000" fill="rgb(127,115,105)" stroke="none" stroke-width="1"/><path id="e58r8bw4afv74" d="M338.876000,246.986000L338.876000,232.214000C310.973000,219.884000,293.577000,193.498000,292.111000,164.572000C292.101000,164.380000,292.071000,163.771000,292.067000,163.657000C292.027000,162.634000,292.001000,161.609000,292.001000,160.576000C292.015000,114.100000,291.973000,116.921000,292.036000,116.157000C291.570000,91.352000,295.408000,39.315000,334.861000,30.644000C334.861000,30.644000,347.851000,5.373000,386.054000,0.730000C356.945000,-2.469000,322.800000,6.180000,309.339000,30.644000C274.160000,38.376000,265.697000,81.211000,266.531000,117.024000C266.543000,117.523000,266.556000,118.010000,266.571000,118.484000C266.777000,125.123000,267.258000,129.296000,267.258000,129.296000L273.469000,234.561000C273.469000,241.394000,279.059000,246.984000,285.892000,246.984000C296.825000,246.986000,326.928000,246.986000,338.876000,246.986000Z" fill="rgb(114,101,90)" stroke="none" stroke-width="1"/><path id="e58r8bw4afv75" d="M228.256000,477.260000L241.610000,357.931000C246.290000,321.899000,244.371000,308.056000,255.998000,293.948000C252.407000,289.582000,247.281000,285.510000,243.901000,283.446000L243.529000,283.354000C230.957000,275.823000,220.372000,275.508000,197.010000,269.080000L197.010000,269.080000L173.120000,257.645000L173.120000,257.645000L173.120000,229.108000C153.105000,237.958000,130.090000,237.649000,110.823000,229.271000L110.823000,229.271000L110.720000,257.763000L110.720000,257.763000L110.720000,257.763000L110.720000,257.763000L86.932000,269.081000L86.932000,269.081000C63.720000,275.468000,53.010000,275.809000,40.413000,283.355000L40.041000,283.447000C38.981000,284.094000,37.861000,284.874000,36.757000,285.748000C18.756000,298.671000,18.471000,315.459000,16.920000,327.865000L9.771000,391.752000L9.771000,391.752000C-0.298000,483.183000,0.007000,475.828000,0.007000,482.876000C-0.151000,494.480000,6.968000,511.999000,28.595000,511.999000L28.595000,511.999000C30.601000,511.999000,254.290000,512.010000,255.998000,511.982000C236.624000,511.658000,226.559000,496.880000,228.256000,477.260000Z" fill="rgb(221,154,94)" stroke="none" stroke-width="1"/><path id="e58r8bw4afv76" d="M25.763000,482.840000C25.589000,472.759000,27.697000,472.868000,43.490000,309.265000C45.141000,295.731000,49.244000,284.674000,61.050000,275.524000C59.262000,276.091000,50.226000,277.476000,40.413000,283.355000L40.041000,283.447000C38.909000,284.138000,37.784000,284.935000,36.757000,285.748000C18.756000,298.671000,18.471000,315.459000,16.920000,327.865000C16.791000,328.996000,0.006000,477.931000,0.006000,482.876000C-0.152000,494.480000,6.967000,511.999000,28.594000,511.999000L28.594000,511.999000L54.350000,511.999000C35.800000,511.999000,25.437000,498.045000,25.763000,482.840000Z" fill="rgb(211,141,84)" stroke="none" stroke-width="1"/><path id="e58r8bw4afv77" d="M136.481000,282.131000L136.481000,235.459000C127.206000,234.836000,118.525000,232.619000,110.822000,229.271000L110.719000,257.763000L110.719000,257.763000L136.481000,282.131000Z" fill="rgb(211,141,84)" stroke="none" stroke-width="1"/><path id="e58r8bw4afv78" d="M511.794000,477.260000C493.603000,316.170000,494.628000,320.716000,492.999000,312.842000C490.356000,300.061000,482.651000,289.978000,471.955000,283.446000L471.584000,283.354000C467.032000,280.627000,461.957000,278.478000,456.508000,276.908000L404.059000,263.851000C402.354000,263.079000,401.174000,260.540000,401.174000,257.645000L401.174000,232.347000C381.406000,240.968000,358.367000,240.831000,338.877000,232.215000L338.877000,257.646000C338.877000,260.541000,337.697000,263.080000,335.992000,263.852000C291.623000,275.672000,281.755000,275.396000,268.467000,283.355000L268.096000,283.447000C253.418000,292.411000,247.745000,304.560000,245.789000,320.598000L228.257000,477.260000C226.500000,497.570000,237.267000,511.999000,256.650000,511.999000C287.495000,511.999000,458.748000,511.999000,483.402000,511.999000C505.029000,511.999000,512.148000,494.480000,511.990000,482.876000C511.990000,482.864000,511.990000,482.852000,511.990000,482.840000C512.025000,480.739000,511.929000,478.831000,511.794000,477.260000Z" fill="rgb(234,184,131)" stroke="none" stroke-width="1"/><path id="e58r8bw4afv79" d="M253.817000,482.876000C253.817000,482.864000,253.817000,482.852000,253.817000,482.840000C253.781000,480.739000,253.876000,478.831000,254.012000,477.260000L271.544000,311.326000C273.418000,295.958000,278.653000,283.817000,293.413000,274.451000C289.080000,275.763000,279.202000,276.924000,268.467000,283.354000L268.096000,283.446000C253.418000,292.410000,247.744000,304.560000,245.789000,320.597000L228.257000,477.259000C226.501000,497.569000,237.267000,511.998000,256.650000,511.998000C272.593000,511.998000,266.461000,511.998000,282.406000,511.998000C260.777000,511.999000,253.659000,494.480000,253.817000,482.876000Z" fill="rgb(216,163,115)" stroke="none" stroke-width="1"/><path id="e58r8bw4afv710" d="M502.222000,391.732000C493.955000,318.346000,494.312000,319.197000,492.999000,312.841000C490.341000,299.988000,482.551000,289.914000,471.955000,283.445000C471.850000,283.419000,471.478000,283.327000,471.584000,283.353000C467.032000,280.626000,461.957000,278.477000,456.508000,276.907000L404.059000,263.850000C402.354000,263.078000,401.174000,260.539000,401.174000,257.644000L401.174000,232.346000L401.174000,232.346000L401.174000,232.214000C381.246000,241.018000,358.323000,240.806000,338.877000,232.214000L338.877000,232.346000L338.877000,232.346000L338.877000,257.644000C338.877000,260.539000,337.697000,263.078000,335.992000,263.850000C291.623000,275.670000,281.755000,275.393000,268.467000,283.353000C268.362000,283.379000,267.990000,283.471000,268.096000,283.445000C253.550000,292.325000,247.742000,304.583000,245.789000,320.596000L237.828000,391.731000L288.006000,396.996000C290.674000,397.276000,292.658000,399.593000,292.523000,402.273000L287.011000,511.998000C348.432000,511.998000,391.946000,511.998000,453.341000,511.998000L447.563000,402.698000C447.409000,399.783000,449.565000,397.257000,452.469000,396.952000L502.222000,391.732000Z" fill="rgb(216,61,61)" stroke="none" stroke-width="1"/><path id="e58r8bw4afv711" d="M237.827000,391.732000L262.772000,394.349000L271.544000,311.325000C273.417000,295.960000,278.651000,283.817000,293.413000,274.450000C287.176000,276.122000,278.098000,277.584000,268.467000,283.354000C268.362000,283.380000,267.990000,283.472000,268.096000,283.446000C257.361000,289.999000,249.685000,300.108000,247.052000,312.842000C245.435000,320.650000,245.741000,322.354000,237.827000,391.732000Z" fill="rgb(168,38,38)" stroke="none" stroke-width="1"/><path id="e58r8bw4afv712" d="M243.714000,283.446000C243.609000,283.420000,243.237000,283.328000,243.342000,283.354000C230.742000,275.806000,219.988000,275.452000,196.986000,269.121000L197.008000,269.080000L173.118000,257.645000L172.945000,257.906000C172.944000,257.874000,172.942000,257.843000,172.940000,257.812000L141.783000,287.147000L110.717000,257.763000L86.929000,269.081000L86.929000,269.081000C63.716000,275.468000,53.007000,275.809000,40.410000,283.355000L40.038000,283.447000C25.359000,292.410000,19.687000,304.564000,17.731000,320.598000L9.768000,391.752000L58.986000,396.916000C62.089000,397.242000,64.396000,399.937000,64.240000,403.053000L58.770000,511.999000C109.338000,511.999000,171.475000,511.999000,225.100000,511.999000L219.322000,402.712000C219.167000,399.789000,221.329000,397.257000,224.241000,396.951000L237.397000,395.571000C247.043000,315.548000,244.222000,308.365000,255.908000,294.062000C253.345000,290.923000,246.510000,285.153000,243.714000,283.446000Z" fill="rgb(112,187,239)" stroke="none" stroke-width="1"/><path id="e58r8bw4afv713" d="M43.490000,309.265000C45.141000,295.731000,49.244000,284.674000,61.050000,275.524000C58.711000,276.188000,49.918000,277.661000,40.413000,283.355000L40.041000,283.447000C36.558000,285.574000,31.372000,289.746000,27.848000,294.061000C15.378000,309.327000,18.769000,321.366000,9.771000,391.753000L35.228000,394.424000C35.152000,395.234000,36.249000,384.271000,43.490000,309.265000Z" fill="rgb(76,174,229)" stroke="none" stroke-width="1"/><path id="e58r8bw4afv714" d="M425.063000,269.080000L404.058000,263.851000C402.353000,263.079000,401.173000,260.540000,401.173000,257.645000L401.173000,229.256000L401.173000,229.256000L401.173000,229.124000C381.079000,238.002000,358.128000,237.630000,338.876000,229.124000L338.876000,229.256000L338.876000,229.256000L338.876000,257.645000C338.876000,260.540000,337.696000,263.079000,335.991000,263.851000L314.670000,269.159000C340.295000,312.257000,399.458000,312.274000,425.063000,269.080000Z" fill="rgb(234,184,131)" stroke="none" stroke-width="1"/><path id="e58r8bw4afv715" d="M44.139000,124.499000L44.139000,97.645000C44.139000,18.601000,133.499000,-27.131000,197.610000,17.531000C247.898000,52.642000,238.320000,104.274000,239.426000,124.499000" fill="rgb(76,72,70)" stroke="none" stroke-width="1"/><path id="e58r8bw4afv716" d="M44.139000,124.499000L44.139000,97.645000C44.139000,18.601000,133.499000,-27.131000,197.610000,17.531000C247.898000,52.642000,238.320000,104.274000,239.426000,124.499000" fill="rgb(76,72,70)" stroke="none" stroke-width="1"/><path id="e58r8bw4afv717" d="M151.518000,0.488000C94.732000,-5.150000,44.139000,39.248000,44.139000,97.645000L44.139000,124.499000L63.610000,124.499000L63.610000,97.645000C63.610000,47.445000,101.727000,5.435000,151.518000,0.488000Z" fill="rgb(63,59,57)" stroke="none" stroke-width="1"/><path id="e58r8bw4afv718" d="M244.286000,133.231000C244.286000,144.484000,233.393000,153.605000,219.956000,153.605000L219.956000,112.858000C233.393000,112.858000,244.286000,121.979000,244.286000,133.231000Z" fill="rgb(221,154,94)" stroke="none" stroke-width="1"/><path id="e58r8bw4afv719" d="M39.279000,133.231000C39.279000,144.484000,50.172000,153.605000,63.610000,153.605000L63.610000,112.858000C50.172000,112.858000,39.279000,121.979000,39.279000,133.231000Z" fill="rgb(221,154,94)" stroke="none" stroke-width="1"/><path id="e58r8bw4afv720" d="M219.956000,135.292000L219.956000,153.605000C233.393000,153.605000,244.286000,144.484000,244.286000,133.231000C244.286000,129.937000,243.347000,126.828000,241.689000,124.075000C237.684000,130.727000,229.459000,135.292000,219.956000,135.292000Z" fill="rgb(211,141,84)" stroke="none" stroke-width="1"/><path id="e58r8bw4afv721" d="M41.876000,124.075000C33.803000,137.483000,45.385000,153.605000,63.610000,153.605000L63.610000,135.292000C54.106000,135.292000,45.881000,130.727000,41.876000,124.075000Z" fill="rgb(211,141,84)" stroke="none" stroke-width="1"/><path id="e58r8bw4afv722" d="M201.945000,84.550000C201.661000,76.742000,195.231000,72.464000,189.028000,73.430000C187.578000,73.655000,185.977000,73.890000,184.951000,74.035000C154.131000,78.410000,124.832000,78.134000,94.541000,73.430000C88.385000,72.471000,81.904000,76.680000,81.624000,84.551000C81.201000,96.151000,76.379000,104.776000,69.032000,110.148000C65.971000,112.388000,63.713000,113.154000,63.610000,113.211000C63.610000,163.813000,63.006000,167.195000,65.717000,178.658000C68.313000,189.602000,73.113000,199.385000,79.392000,207.685000C115.765000,255.788000,191.918000,246.397000,214.498000,189.338000C221.972000,170.457000,219.958000,156.123000,219.958000,113.211000C219.666000,112.993000,202.753000,106.995000,201.945000,84.550000Z" fill="rgb(237,174,107)" stroke="none" stroke-width="1"/><path id="e58r8bw4afv723" d="M92.275000,191.573000C86.755000,171.897000,89.818000,159.878000,88.955000,122.584000C88.955000,118.744000,90.883000,115.481000,93.236000,113.813000C102.517000,107.211000,106.730000,96.416000,106.993000,84.893000C107.084000,81.016000,108.900000,77.688000,111.580000,75.601000C107.860000,75.229000,104.249000,74.800000,100.912000,74.352000C98.970000,74.092000,96.753000,73.774000,94.541000,73.430000C88.402000,72.474000,81.906000,76.668000,81.624000,84.551000C81.200000,96.131000,76.387000,104.770000,69.032000,110.148000C65.970000,112.389000,63.713000,113.154000,63.610000,113.211000C63.610000,164.122000,63.580000,161.492000,63.683000,163.998000C65.262000,199.715000,90.750000,228.762000,122.562000,236.351000C121.082000,235.246000,98.479000,213.713000,92.275000,191.573000Z" fill="rgb(221,154,94)" stroke="none" stroke-width="1"/><path id="e58r8bw4afv724" d="M149.511000,343.295000L149.511000,279.872000L141.784000,287.147000L134.057000,279.838000L134.057000,343.295000C134.057000,347.563000,137.516000,351.022000,141.784000,351.022000C146.052000,351.022000,149.511000,347.563000,149.511000,343.295000Z" fill="rgb(76,174,229)" stroke="none" stroke-width="1"/><path id="e58r8bw4afv725" d="M173.119000,257.645000L141.784000,287.147000L158.699000,304.193000C161.929000,307.448000,167.282000,307.131000,170.106000,303.517000L197.009000,269.080000L173.119000,257.645000Z" fill="rgb(218,218,218)" stroke="none" stroke-width="1"/><polygon id="e58r8bw4afv726" points="185.149000,263.403000 173.119000,257.645000 141.784000,287.147000 152.978000,298.427000" fill="rgb(206,204,202)" stroke="none" stroke-width="1"/><path id="e58r8bw4afv727" d="M161,305.775000C162.415000,306.407000,163.974000,306.587000,165.467000,306.317000L161,305.775000Z" fill="rgb(206,204,202)" stroke="none" stroke-width="1"/><path id="e58r8bw4afv728" d="M110.719000,257.763000L141.785000,287.147000L124.870000,304.193000C121.640000,307.448000,116.287000,307.131000,113.463000,303.517000L86.560000,269.080000L110.719000,257.763000Z" fill="rgb(218,218,218)" stroke="none" stroke-width="1"/><polygon id="e58r8bw4afv729" points="119.884000,287.033000 130.591000,298.427000 141.784000,287.147000 110.719000,257.763000 97.983000,263.729000" fill="rgb(206,204,202)" stroke="none" stroke-width="1"/><path id="e58r8bw4afv730" d="M364.762000,273.386000L364.762000,235.451000C355.521000,234.818000,346.757000,232.605000,338.876000,229.123000C338.093000,251.649000,340.917000,261.619000,335.991000,263.851000L314.670000,269.159000C319.978000,278.086000,327.154000,285.633000,335.614000,291.186000L357.749000,283.047000C357.751000,283.046000,364.762000,279.566000,364.762000,273.386000Z" fill="rgb(216,163,115)" stroke="none" stroke-width="1"/><path id="e58r8bw4afv731" d="M440.485000,135.004000C444.884000,135.210000,448.350000,138.831000,448.350000,143.235000L448.350000,149.146000L448.350000,149.146000L448.350000,149.146000C448.329000,159.643000,449.060000,169.836000,445.030000,183.190000C440.971000,196.651000,433.323000,209.018000,421.829000,219.243000C373.335000,262.429000,295.412000,229.828000,292.111000,164.572000C292.096000,164.277000,292.107000,164.656000,292.067000,163.657000C292.027000,162.634000,292.001000,161.609000,292.001000,160.576000C292.001000,151.266000,292.001000,130.018000,292.001000,120.922000L292.001000,120.922000L292.001000,116.962000C292.001000,112.362000,295.242000,108.429000,299.742000,107.477000C307.726000,105.789000,320.627000,101.202000,332.330000,88.746000C335.271000,85.616000,340.288000,85.779000,343.022000,89.091000C354.378000,102.851000,385.043000,132.413000,440.485000,135.004000Z" fill="rgb(247,207,156)" stroke="none" stroke-width="1"/><path id="e58r8bw4afv732" d="M325.843000,195.243000C315.520000,174.383000,317.917000,159.596000,317.757000,130.602000C317.757000,120.540000,317.757000,110.505000,317.757000,100.425000C310.879000,104.460000,304.453000,106.482000,299.742000,107.478000C295.241000,108.430000,292.001000,112.363000,292.001000,116.963000C292.001000,127.045000,292.001000,149.436000,292.001000,160.576000C292.001000,161.868000,292.069000,163.880000,292.074000,163.999000C292.078000,164.103000,292.184000,165.905000,292.256000,166.812000C295.863000,212.700000,338.172000,245.109000,383.053000,237.672000C358.380000,233.583000,337.053000,217.823000,325.843000,195.243000Z" fill="rgb(234,184,131)" stroke="none" stroke-width="1"/><path id="e58r8bw4afv733" d="M440.133000,272.832000L425.063000,269.081000C413.523000,288.549000,393.113000,301.497000,369.843000,301.497000C369.843000,301.496000,440.445000,372.106000,440.133000,272.832000Z" fill="rgb(183,44,44)" stroke="none" stroke-width="1"/><path id="e58r8bw4afv734" d="M299.885000,272.832000L314.955000,269.081000C326.495000,288.549000,346.905000,301.497000,370.175000,301.497000C370.175000,301.496000,299.573000,372.106000,299.885000,272.832000Z" fill="rgb(183,44,44)" stroke="none" stroke-width="1"/><path id="e58r8bw4afv735" d="M336.591000,291.609000C324.134000,298.241000,309.779000,301.406000,300.585000,289.106000C307.900000,363.775000,370.175000,301.496000,370.175000,301.496000C357.888000,301.496000,346.399000,297.883000,336.591000,291.609000Z" fill="rgb(168,38,38)" stroke="none" stroke-width="1"/><path id="e58r8bw4afv736" d="M403.427000,291.609000C415.884000,298.241000,430.239000,301.406000,439.433000,289.106000C432.118000,363.775000,369.843000,301.496000,369.843000,301.496000C382.131000,301.496000,393.619000,297.883000,403.427000,291.609000Z" fill="rgb(168,38,38)" stroke="none" stroke-width="1"/><path id="e58r8bw4afv737" d="M309.413000,277.280000C279.798000,239.946000,222.606000,243.997000,198.007000,283.792000C183.612000,307.048000,189.043000,328.237000,187.850000,334.720000L324.145000,334.720000C323.713000,321.406000,327.384000,299.915000,309.413000,277.280000Z" fill="rgb(153,97,35)" stroke="none" stroke-width="1"/><path id="e58r8bw4afv738" d="M206.339000,303.841000C206.644000,302.550000,207.364000,299.998000,207.396000,299.891000C214.992000,274.698000,236.964000,255.317000,264.323000,251.982000C237.238000,248.681000,211.681000,261.656000,198.006000,283.792000C183.611000,307.048000,189.043000,328.233000,187.849000,334.720000L204.501000,334.720000C204.520000,320.503000,203.973000,313.871000,206.339000,303.841000Z" fill="rgb(142,85,28)" stroke="none" stroke-width="1"/><path id="e58r8bw4afv739" d="M344.433000,391.760000C338.446000,373.185000,330.683000,361.590000,324.765000,355.544000C321.349000,358.910000,316.612000,361.303000,311.222000,362.162000C321.108000,376.417000,318.942000,390.644000,318.449000,399.109000C318.224000,402.971000,321.700000,406.003000,325.487000,405.217000L338.105000,402.600000C343.014000,401.582000,345.971000,396.530000,344.433000,391.760000Z" fill="rgb(153,97,35)" stroke="none" stroke-width="1"/><path id="e58r8bw4afv740" d="M331.406000,343.792000C331.406000,354.703000,320.845000,363.545000,307.817000,363.545000L307.817000,324.041000C320.845000,324.041000,331.406000,332.883000,331.406000,343.792000Z" fill="rgb(239,208,163)" stroke="none" stroke-width="1"/><path id="e58r8bw4afv741" d="M167.561000,391.760000C173.548000,373.185000,181.311000,361.590000,187.229000,355.544000C190.645000,358.910000,195.382000,361.303000,200.772000,362.162000C190.886000,376.417000,193.052000,390.644000,193.545000,399.109000C193.770000,402.971000,190.294000,406.003000,186.506000,405.217000L173.888000,402.600000C168.981000,401.582000,166.024000,396.530000,167.561000,391.760000Z" fill="rgb(142,85,28)" stroke="none" stroke-width="1"/><path id="e58r8bw4afv742" d="M180.589000,343.792000C180.589000,354.703000,191.150000,363.545000,204.178000,363.545000L204.178000,324.041000C191.150000,324.041000,180.589000,332.883000,180.589000,343.792000Z" fill="rgb(239,208,163)" stroke="none" stroke-width="1"/><path id="e58r8bw4afv743" d="M307.816000,346.626000L307.816000,363.546000C325.297000,363.546000,336.475000,348.278000,329.135000,335.333000C325.351000,342.009000,317.229000,346.626000,307.816000,346.626000Z" fill="rgb(226,191,145)" stroke="none" stroke-width="1"/><path id="e58r8bw4afv744" d="M182.859000,335.333000C175.506000,348.301000,186.746000,363.546000,204.178000,363.546000L204.178000,346.626000C194.766000,346.626000,186.644000,342.009000,182.859000,335.333000Z" fill="rgb(226,191,145)" stroke="none" stroke-width="1"/><path id="e58r8bw4afv745" d="M343.624000,511.999000L338.250000,463.974000C337.024000,453.917000,333.487000,445.470000,323.463000,439.348000L323.217000,439.287000C314.445000,434.032000,308.080000,434.251000,278.457000,426.359000C275.182000,424.876000,277.083000,418.522000,276.545000,402.385000C263.310000,408.177000,247.990000,407.936000,235.251000,402.297000C234.727000,418.059000,236.627000,424.869000,233.339000,426.359000C203.773000,434.236000,197.362000,434.026000,188.580000,439.287000L188.334000,439.348000C181.268000,443.664000,176.142000,450.333000,174.385000,458.833000C173.337000,463.901000,173.611000,464.312000,168.173000,511.999000L343.624000,511.999000Z" fill="rgb(239,208,163)" stroke="none" stroke-width="1"/><path id="e58r8bw4afv746" d="M168.171000,511.999000C210.719000,511.999000,301.048000,511.999000,343.623000,511.999000L338.249000,463.974000C337.025000,453.929000,333.473000,445.460000,323.462000,439.348000L323.216000,439.287000C314.519000,434.077000,307.508000,434.064000,284.024000,427.745000C284.024000,427.966000,284.024000,434.065000,284.024000,433.959000C284.024000,438.411000,282.978000,442.651000,281.125000,446.388000C280.819000,447.007000,280.322000,447.922000,279.847000,448.688000C279.825000,448.723000,279.518000,449.207000,279.495000,449.242000C279.004000,449.995000,278.479000,450.719000,277.965000,451.366000C277.722000,451.672000,277.393000,452.068000,277.134000,452.360000C277.092000,452.407000,277.051000,452.454000,277.009000,452.501000C276.844000,452.690000,276.677000,452.876000,276.506000,453.060000C276.488000,453.079000,276.469000,453.099000,276.451000,453.119000C276.447000,453.123000,276.444000,453.126000,276.441000,453.130000C276.415000,453.158000,276.389000,453.185000,276.363000,453.213000C276.165000,453.422000,275.963000,453.626000,275.759000,453.828000C275.692000,453.895000,275.626000,453.964000,275.559000,454.030000C275.295000,454.287000,275.026000,454.539000,274.753000,454.786000C274.675000,454.856000,274.594000,454.923000,274.516000,454.993000C274.345000,455.146000,274.167000,455.291000,273.994000,455.442000C273.967000,455.466000,273.940000,455.489000,273.913000,455.512000C273.808000,455.599000,273.701000,455.684000,273.594000,455.770000C273.411000,455.917000,273.228000,456.064000,273.042000,456.206000C272.925000,456.296000,272.806000,456.384000,272.687000,456.473000C272.505000,456.608000,272.322000,456.741000,272.137000,456.872000C272.046000,456.936000,271.954000,457,271.862000,457.063000C271.831000,457.084000,271.801000,457.106000,271.770000,457.127000C271.579000,457.257000,271.385000,457.385000,271.190000,457.511000C271.160000,457.530000,271.131000,457.549000,271.101000,457.568000C271.012000,457.626000,270.923000,457.684000,270.833000,457.740000C270.668000,457.843000,270.501000,457.942000,270.333000,458.041000C270.277000,458.074000,270.222000,458.109000,270.166000,458.141000C270.142000,458.155000,270.117000,458.170000,270.093000,458.184000C270.020000,458.228000,269.948000,458.272000,269.874000,458.314000C269.552000,458.498000,269.226000,458.676000,268.896000,458.847000C268.851000,458.870000,268.806000,458.892000,268.760000,458.914000C268.745000,458.921000,268.730000,458.929000,268.715000,458.937000C268.660000,458.965000,268.605000,458.991000,268.550000,459.018000C268.331000,459.128000,268.112000,459.238000,267.890000,459.343000C267.770000,459.399000,267.649000,459.452000,267.529000,459.506000C267.307000,459.606000,267.084000,459.705000,266.859000,459.800000C266.723000,459.857000,266.586000,459.912000,266.449000,459.967000C266.234000,460.054000,266.018000,460.138000,265.801000,460.219000C265.660000,460.272000,265.518000,460.324000,265.376000,460.374000C265.155000,460.453000,264.932000,460.528000,264.708000,460.601000C264.597000,460.637000,264.486000,460.673000,264.375000,460.709000C264.347000,460.718000,264.320000,460.727000,264.292000,460.736000C264.230000,460.755000,264.166000,460.772000,264.104000,460.791000C263.921000,460.846000,263.738000,460.900000,263.554000,460.951000C263.464000,460.976000,263.375000,461.002000,263.284000,461.027000C263.254000,461.035000,263.224000,461.044000,263.194000,461.052000C262.826000,461.150000,262.455000,461.241000,262.081000,461.324000C262.026000,461.336000,261.970000,461.347000,261.915000,461.359000C261.749000,461.395000,261.584000,461.430000,261.417000,461.463000C260.973000,461.550000,260.525000,461.626000,260.073000,461.692000C259.170000,461.824000,258.253000,461.912000,257.324000,461.955000C257.213000,461.961000,257.103000,461.963000,256.993000,461.966000C256.934000,461.968000,256.874000,461.970000,256.814000,461.972000C256.652000,461.977000,256.491000,461.980000,256.330000,461.982000C256.285000,461.982000,256.240000,461.982000,256.196000,461.983000C256.185000,461.983000,256.174000,461.983000,256.163000,461.983000C256.107000,461.983000,256.051000,461.984000,255.995000,461.984000C255.939000,461.984000,255.883000,461.983000,255.827000,461.983000C255.816000,461.983000,255.805000,461.983000,255.793000,461.983000C255.748000,461.983000,255.704000,461.983000,255.659000,461.982000C255.498000,461.980000,255.337000,461.977000,255.175000,461.972000C255.115000,461.970000,255.056000,461.968000,254.996000,461.966000C254.886000,461.962000,254.775000,461.960000,254.665000,461.955000C253.736000,461.912000,252.819000,461.823000,251.916000,461.692000C251.464000,461.626000,251.016000,461.550000,250.572000,461.463000C250.405000,461.430000,250.240000,461.395000,250.074000,461.359000C250.019000,461.347000,249.963000,461.337000,249.908000,461.324000C249.534000,461.241000,249.163000,461.149000,248.795000,461.052000C248.765000,461.044000,248.735000,461.035000,248.705000,461.027000C248.615000,461.002000,248.525000,460.976000,248.435000,460.951000C248.253000,460.900000,248.072000,460.847000,247.891000,460.793000C247.827000,460.773000,247.761000,460.756000,247.697000,460.736000C247.669000,460.727000,247.642000,460.718000,247.614000,460.709000C247.503000,460.674000,247.392000,460.638000,247.281000,460.601000C247.057000,460.528000,246.835000,460.453000,246.613000,460.374000C246.471000,460.324000,246.329000,460.272000,246.188000,460.219000C245.971000,460.138000,245.754000,460.054000,245.540000,459.967000C245.403000,459.912000,245.266000,459.857000,245.130000,459.800000C244.905000,459.705000,244.682000,459.606000,244.460000,459.506000C244.340000,459.452000,244.218000,459.399000,244.099000,459.343000C243.877000,459.239000,243.658000,459.129000,243.439000,459.018000C243.384000,458.991000,243.329000,458.965000,243.274000,458.937000C243.259000,458.929000,243.244000,458.922000,243.229000,458.914000C243.184000,458.892000,243.138000,458.870000,243.093000,458.847000C242.763000,458.676000,242.437000,458.498000,242.115000,458.314000C242.042000,458.272000,241.969000,458.228000,241.896000,458.184000C241.872000,458.170000,241.847000,458.155000,241.823000,458.141000C241.767000,458.108000,241.712000,458.074000,241.657000,458.041000C241.489000,457.942000,241.322000,457.843000,241.157000,457.740000C241.067000,457.684000,240.978000,457.626000,240.889000,457.568000C240.859000,457.549000,240.829000,457.530000,240.800000,457.511000C235.199000,453.890000,231.068000,448.410000,229.156000,442.068000C227.446000,436.399000,228.116000,432.361000,227.966000,427.697000L222.016000,429.178000C203.352000,434.272000,196.906000,434.297000,188.574000,439.288000L188.328000,439.349000C181.352000,443.610000,176.146000,450.292000,174.379000,458.834000C173.333000,463.889000,173.541000,464.877000,168.171000,511.999000Z" fill="rgb(249,185,56)" stroke="none" stroke-width="1"/><path id="e58r8bw4afv747" d="M187.435000,481.720000C189.583000,462.348000,188.074000,446.094000,204.372000,435.631000L204.618000,435.567000C206.425000,434.429000,208.370000,433.453000,210.405000,432.604000C210.778000,432.310000,211.140000,432.041000,211.488000,431.798000C203.243000,434.153000,196.398000,434.602000,188.579000,439.286000L188.333000,439.347000C181.213000,443.695000,176.092000,450.402000,174.345000,459.043000C173.313000,464.124000,173.548000,464.828000,168.172000,511.998000L184.212000,511.998000L187.435000,481.720000Z" fill="rgb(234,162,36)" stroke="none" stroke-width="1"/><path id="e58r8bw4afv748" d="M213.239000,511.999000L213.957000,489.639000C214.094000,485.373000,210.748000,481.805000,206.482000,481.668000C202.216000,481.501000,198.648000,484.876000,198.511000,489.142000L197.777000,511.999000L213.239000,511.999000Z" fill="rgb(234,162,36)" stroke="none" stroke-width="1"/><path id="e58r8bw4afv749" d="M314.217000,511.999000L313.483000,489.142000C313.346000,484.878000,309.811000,481.514000,305.512000,481.668000C301.247000,481.805000,297.900000,485.373000,298.037000,489.639000L298.755000,511.999000L314.217000,511.999000Z" fill="rgb(234,162,36)" stroke="none" stroke-width="1"/><path id="e58r8bw4afv750" d="M249.593000,442.624000C249.722000,442.433000,255.635000,440.683000,255.909000,433.194000L255.909000,406.626000C248.376000,406.587000,241.400000,405.020000,235.251000,402.298000C234.727000,418.065000,236.627000,424.870000,233.339000,426.360000L227.971000,427.696000C228.121000,432.352000,227.451000,436.387000,229.161000,442.067000C229.890000,444.483000,231.040000,446.940000,232.175000,448.730000L249.593000,442.624000L249.593000,442.624000Z" fill="rgb(226,191,145)" stroke="none" stroke-width="1"/><path id="e58r8bw4afv751" d="M252.427000,306.842000C240.798000,326.186000,216.112000,323.210000,207.347000,321.439000C205.707000,321.108000,204.179000,322.368000,204.179000,324.041000L204.179000,324.041000C204.179000,355.517000,203.218000,362.438000,206.380000,372.893000C212.795000,394.165000,232.434000,409.459000,255.378000,409.714000C283.975000,410.071000,307.817000,387.049000,307.817000,357.904000C307.817000,344.728000,307.817000,335.450000,307.817000,324.042000L307.817000,324.042000C307.817000,322.369000,306.288000,321.109000,304.649000,321.440000C295.884000,323.211000,271.198000,326.186000,259.569000,306.843000C257.947000,304.146000,254.048000,304.146000,252.427000,306.842000Z" fill="rgb(252,227,187)" stroke="none" stroke-width="1"/><path id="e58r8bw4afv752" d="M230.699000,366.819000C229.347000,359.019000,230.215000,356.007000,229.935000,321.850000C220.816000,323.606000,211.917000,322.362000,207.347000,321.439000C205.707000,321.108000,204.179000,322.368000,204.179000,324.041000C204.179000,355.995000,203.237000,362.499000,206.380000,372.893000C214.183000,398.769000,241.318000,415.188000,268.876000,408.099000C249.301000,403.067000,234.207000,387.001000,230.699000,366.819000Z" fill="rgb(239,208,163)" stroke="none" stroke-width="1"/></g><g id="e58r8bw4afv753"/><g id="e58r8bw4afv754"/><g id="e58r8bw4afv755"/><g id="e58r8bw4afv756"/><g id="e58r8bw4afv757"/><g id="e58r8bw4afv758"/><g id="e58r8bw4afv759"/><g id="e58r8bw4afv760"/><g id="e58r8bw4afv761"/><script><![CDATA[!function(t,n){"object"==typeof exports&&"undefined"!=typeof module?module.exports=n():"function"==typeof define&&define.amd?define(n):(t=t||self).__SVGATOR_PLAYER__=n()}(this,(function(){"use strict";function t(n){return(t="function"==typeof Symbol&&"symbol"==typeof Symbol.iterator?function(t){return typeof t}:function(t){return t&&"function"==typeof Symbol&&t.constructor===Symbol&&t!==Symbol.prototype?"symbol":typeof t})(n)}function n(t,n){if(!(t instanceof n))throw new TypeError("Cannot call a class as a function")}function r(t,n){for(var r=0;r<n.length;r++){var e=n[r];e.enumerable=e.enumerable||!1,e.configurable=!0,"value"in e&&(e.writable=!0),Object.defineProperty(t,e.key,e)}}function e(t,n,e){return n&&r(t.prototype,n),e&&r(t,e),t}var i=1e-5,u=Math.abs;function o(t){return t}function a(t,n,r){var e=1-r;return 3*r*e*(t*e+n*r)+r*r*r}function l(){var t=arguments.length>0&&void 0!==arguments[0]?arguments[0]:0,n=arguments.length>1&&void 0!==arguments[1]?arguments[1]:0,r=arguments.length>2&&void 0!==arguments[2]?arguments[2]:1,e=arguments.length>3&&void 0!==arguments[3]?arguments[3]:1;return t<0||t>1||r<0||r>1?null:u(t-n)<=i&&u(r-e)<=i?o:function(o){if(o<=0)return t>0?o*n/t:0===n&&r>0?o*e/r:0;if(o>=1)return r<1?1+(o-1)*(e-1)/(r-1):1===r&&t<1?1+(o-1)*(n-1)/(t-1):1;for(var l,f=0,s=1;f<s;){var c=a(t,r,l=(f+s)/2);if(u(o-c)<i)break;c<o?f=l:s=l}return a(n,e,l)}}function f(){return 1}function s(t){return 1===t?1:0}function c(){var t=arguments.length>0&&void 0!==arguments[0]?arguments[0]:1,n=arguments.length>1&&void 0!==arguments[1]?arguments[1]:0;if(1===t){if(0===n)return s;if(1===n)return f}var r=1/t;return function(t){return t>=1?1:(t+=n*r)-t%r}}function v(t){var n=arguments.length>1&&void 0!==arguments[1]?arguments[1]:2;if(Number.isInteger(t))return t;var r=Math.pow(10,n);return Math.round(t*r)/r}var h=Math.PI/180;function y(t,n,r){return t>=.5?r:n}function d(t,n,r){return 0===t||n===r?n:t*(r-n)+n}function g(t,n,r){var e=d(t,n,r);return e<=0?0:e}function m(t,n,r){return 0===t?n:1===t?r:{x:d(t,n.x,r.x),y:d(t,n.y,r.y)}}function p(t,n,r){return 0===t?n:1===t?r:{x:g(t,n.x,r.x),y:g(t,n.y,r.y)}}function b(t,n,r){var e=function(t,n,r){return Math.round(d(t,n,r))}(t,n,r);return e<=0?0:e>=255?255:e}function w(t,n,r){return 0===t?n:1===t?r:{r:b(t,n.r,r.r),g:b(t,n.g,r.g),b:b(t,n.b,r.b),a:d(t,null==n.a?1:n.a,null==r.a?1:r.a)}}function A(t,n,r){if(0===t)return n;if(1===t)return r;var e=n.length;if(e!==r.length)return y(t,n,r);for(var i=[],u=0;u<e;u++)i.push(w(t,n[u],r[u]));return i}function x(t,n,r){var e=n.length;if(e!==r.length)return y(t,n,r);for(var i=new Array(e),u=0;u<e;u++)i[u]=d(t,n[u],r[u]);return i}function k(t,n){for(var r=[],e=0;e<t;e++)r.push(n);return r}function S(t,n){if(--n<=0)return t;var r=(t=Object.assign([],t)).length;do{for(var e=0;e<r;e++)t.push(t[e])}while(--n>0);return t}var _=6,M=/\.0+$/g;function I(t){return Number.isInteger(t)?t+"":t.toFixed(_).replace(M,"")}function E(t){var n=arguments.length>1&&void 0!==arguments[1]?arguments[1]:" ";return t&&t.length?t.map(I).join(n):""}function F(t){return I(t.x)+","+I(t.y)}function B(t){return t?null==t.a||t.a>=1?"rgb("+t.r+","+t.g+","+t.b+")":"rgba("+t.r+","+t.g+","+t.b+","+t.a+")":"transparent"}var j={f:null,i:p,u:function(t,n){return function(r){var e=n(r);t.setAttribute("rx",I(e.x)),t.setAttribute("ry",I(e.y))}}},q={f:null,i:function(t,n,r){return 0===t?n:1===t?r:{width:g(t,n.width,r.width),height:g(t,n.height,r.height)}},u:function(t,n){return function(r){var e=n(r);t.setAttribute("width",I(e.width)),t.setAttribute("height",I(e.height))}}},P=Math.sin,O=Math.cos,z=Math.acos,L=Math.asin,C=Math.tan,R=Math.atan2,T=Math.PI/180,V=180/Math.PI,D=Math.sqrt,N=function(){function t(){var r=arguments.length>0&&void 0!==arguments[0]?arguments[0]:1,e=arguments.length>1&&void 0!==arguments[1]?arguments[1]:0,i=arguments.length>2&&void 0!==arguments[2]?arguments[2]:0,u=arguments.length>3&&void 0!==arguments[3]?arguments[3]:1,o=arguments.length>4&&void 0!==arguments[4]?arguments[4]:0,a=arguments.length>5&&void 0!==arguments[5]?arguments[5]:0;n(this,t),this.m=[r,e,i,u,o,a],this.i=null,this.w=null,this.s=null}return e(t,[{key:"point",value:function(t,n){var r=this.m;return{x:r[0]*t+r[2]*n+r[4],y:r[1]*t+r[3]*n+r[5]}}},{key:"translateSelf",value:function(){var t=arguments.length>0&&void 0!==arguments[0]?arguments[0]:0,n=arguments.length>1&&void 0!==arguments[1]?arguments[1]:0;if(!t&&!n)return this;var r=this.m;return r[4]+=r[0]*t+r[2]*n,r[5]+=r[1]*t+r[3]*n,this.w=this.s=this.i=null,this}},{key:"rotateSelf",value:function(){var t=arguments.length>0&&void 0!==arguments[0]?arguments[0]:0;if(t%=360){var n=P(t*=T),r=O(t),e=this.m,i=e[0],u=e[1];e[0]=i*r+e[2]*n,e[1]=u*r+e[3]*n,e[2]=e[2]*r-i*n,e[3]=e[3]*r-u*n,this.w=this.s=this.i=null}return this}},{key:"scaleSelf",value:function(){var t=arguments.length>0&&void 0!==arguments[0]?arguments[0]:1,n=arguments.length>1&&void 0!==arguments[1]?arguments[1]:1;if(1!==t||1!==n){var r=this.m;r[0]*=t,r[1]*=t,r[2]*=n,r[3]*=n,this.w=this.s=this.i=null}return this}},{key:"skewSelf",value:function(t,n){if(n%=360,(t%=360)||n){var r=this.m,e=r[0],i=r[1],u=r[2],o=r[3];t&&(t=C(t*T),r[2]+=e*t,r[3]+=i*t),n&&(n=C(n*T),r[0]+=u*n,r[1]+=o*n),this.w=this.s=this.i=null}return this}},{key:"resetSelf",value:function(){var t=arguments.length>0&&void 0!==arguments[0]?arguments[0]:1,n=arguments.length>1&&void 0!==arguments[1]?arguments[1]:0,r=arguments.length>2&&void 0!==arguments[2]?arguments[2]:0,e=arguments.length>3&&void 0!==arguments[3]?arguments[3]:1,i=arguments.length>4&&void 0!==arguments[4]?arguments[4]:0,u=arguments.length>5&&void 0!==arguments[5]?arguments[5]:0,o=this.m;return o[0]=t,o[1]=n,o[2]=r,o[3]=e,o[4]=i,o[5]=u,this.w=this.s=this.i=null,this}},{key:"recomposeSelf",value:function(){var t=arguments.length>0&&void 0!==arguments[0]?arguments[0]:null,n=arguments.length>1&&void 0!==arguments[1]?arguments[1]:null,r=arguments.length>2&&void 0!==arguments[2]?arguments[2]:null,e=arguments.length>3&&void 0!==arguments[3]?arguments[3]:null,i=arguments.length>4&&void 0!==arguments[4]?arguments[4]:null;return this.isIdentity||this.resetSelf(),t&&(t.x||t.y)&&this.translateSelf(t.x,t.y),n&&this.rotateSelf(n),r&&(r.x&&this.skewSelf(r.x,0),r.y&&this.skewSelf(0,r.y)),!e||1===e.x&&1===e.y||this.scaleSelf(e.x,e.y),i&&(i.x||i.y)&&this.translateSelf(i.x,i.y),this}},{key:"decompose",value:function(){var t=arguments.length>0&&void 0!==arguments[0]?arguments[0]:0,n=arguments.length>1&&void 0!==arguments[1]?arguments[1]:0,r=this.m,e=r[0]*r[0]+r[1]*r[1],i=[[r[0],r[1]],[r[2],r[3]]],u=D(e);if(0===u)return{origin:{x:r[4],y:r[5]},translate:{x:t,y:n},scale:{x:0,y:0},skew:{x:0,y:0},rotate:0};i[0][0]/=u,i[0][1]/=u;var o=r[0]*r[3]-r[1]*r[2]<0;o&&(u=-u);var a=i[0][0]*i[1][0]+i[0][1]*i[1][1];i[1][0]-=i[0][0]*a,i[1][1]-=i[0][1]*a;var l=D(i[1][0]*i[1][0]+i[1][1]*i[1][1]);if(0===l)return{origin:{x:r[4],y:r[5]},translate:{x:t,y:n},scale:{x:u,y:0},skew:{x:0,y:0},rotate:0};i[1][0]/=l,i[1][1]/=l,a/=l;var f=0;return i[1][1]<0?(f=z(i[1][1])*V,i[0][1]<0&&(f=360-f)):f=L(i[0][1])*V,o&&(f=-f),a=R(a,D(i[0][0]*i[0][0]+i[0][1]*i[0][1]))*V,{origin:{x:r[4],y:r[5]},translate:{x:t,y:n},scale:{x:u,y:l},skew:{x:a,y:0},rotate:f}}},{key:"toString",value:function(){return null===this.s&&(this.s="matrix("+this.m.map($).join(" ")+")"),this.s}},{key:"determinant",get:function(){var t=this.m;return t[0]*t[3]-t[1]*t[2]}},{key:"isIdentity",get:function(){if(null===this.i){var t=this.m;this.i=1===t[0]&&0===t[1]&&0===t[2]&&1===t[3]&&0===t[4]&&0===t[5]}return this.i}}]),t}(),G=/\.0+$/;function $(t){return Number.isInteger(t)?t:t.toFixed(14).replace(G,"")}Object.freeze({M:2,L:2,Z:0,H:1,V:1,C:6,Q:4,T:2,S:4,A:7});function H(t,n,r){return t+(n-t)*r}function Q(t,n,r){var e=arguments.length>3&&void 0!==arguments[3]&&arguments[3],i={x:H(t.x,n.x,r),y:H(t.y,n.y,r)};return e&&(i.a=function(t,n){return Math.atan2(n.y-t.y,n.x-t.x)}(t,n)),i}function U(t,n,r,e){var i=1-e;return i*i*t+2*i*e*n+e*e*r}function Y(t,n,r,e){return 2*(1-e)*(n-t)+2*e*(r-n)}function Z(t,n,r,e){var i=arguments.length>4&&void 0!==arguments[4]&&arguments[4],u={x:U(t.x,n.x,r.x,e),y:U(t.y,n.y,r.y,e)};return i&&(u.a=function(t,n,r,e){return Math.atan2(Y(t.y,n.y,r.y,e),Y(t.x,n.x,r.x,e))}(t,n,r,e)),u}function J(t,n,r,e,i){var u=i*i;return i*u*(e-t+3*(n-r))+3*u*(t+r-2*n)+3*i*(n-t)+t}function K(t,n,r,e,i){var u=1-i;return 3*(u*u*(n-t)+2*u*i*(r-n)+i*i*(e-r))}function W(t,n,r,e,i){var u=arguments.length>5&&void 0!==arguments[5]&&arguments[5],o={x:J(t.x,n.x,r.x,e.x,i),y:J(t.y,n.y,r.y,e.y,i)};return u&&(o.a=function(t,n,r,e,i){return Math.atan2(K(t.y,n.y,r.y,e.y,i),K(t.x,n.x,r.x,e.x,i))}(t,n,r,e,i)),o}function X(t,n,r){var e,i=arguments.length>3&&void 0!==arguments[3]&&arguments[3];if(nt(n)){if(null!=(e=r).start&&!nt(e))return Z(n,r.start,r,t,i)}else if(nt(r)){if(n.end)return Z(n,n.end,r,t,i)}else{if(n.end)return r.start?W(n,n.end,r.start,r,t,i):Z(n,n.end,r,t,i);if(r.start)return Z(n,r.start,r,t,i)}return Q(n,r,t,i)}function tt(t,n,r){var e=X(t,n,r,!0);return e.a=function(t){return arguments.length>1&&void 0!==arguments[1]&&arguments[1]?t+Math.PI:t}(e.a)/h,e}function nt(t){return!t.type||"corner"===t.type}var rt=new N;var et={f:function(t){return t?t.join(" "):""},i:function(n,r,e){if(0===n)return r;if(1===n)return e;var i=r.length;if(i!==e.length)return y(n,r,e);for(var u,o=new Array(i),a=0;a<i;a++){if((u=t(r[a]))!==t(e[a]))return y(n,r,e);if("number"===u)o[a]=d(n,r[a],e[a]);else{if(r[a]!==e[a])return y(n,r,e);o[a]=r[a]}}return o}},it={f:null,i:x,u:function(t,n){return function(r){var e=n(r);t.setAttribute("x1",I(e[0])),t.setAttribute("y1",I(e[1])),t.setAttribute("x2",I(e[2])),t.setAttribute("y2",I(e[3]))}}},ut={f:I,i:d},ot={f:I,i:function(t,n,r){var e=d(t,n,r);return e<=0?0:e>=1?1:e}},at={f:E,i:function(t,n,r){var e,i,u,o=n.length,a=r.length;if(o!==a)if(0===o)n=k(o=a,0);else if(0===a)a=o,r=k(o,0);else{var l=(u=(e=o)*(i=a)/function(t,n){for(var r;n;)r=n,n=t%n,t=r;return t||1}(e,i))<0?-u:u;n=S(n,Math.floor(l/o)),r=S(r,Math.floor(l/a)),o=a=l}for(var f=[],s=0;s<o;s++)f.push(v(g(t,n[s],r[s]),6));return f}};function lt(t,n,r,e,i,u,o,a){return n=function(t,n,r){for(var e,i,u,o=t.length-1,a={},l=0;l<=o;l++)(e=t[l]).e&&(e.e=n(e.e)),e.v&&"g"===(i=e.v).t&&i.r&&(u=r.getElementById(i.r))&&(a[i.r]=u.querySelectorAll("stop"));return a}(t,e,a),function(e){var i,u=r(e,t,ft);return u?"c"===u.t?B(u.v):"g"===u.t?(n[u.r]&&function(t,n){for(var r=0,e=t.length;r<e;r++)t[r].setAttribute("stop-color",B(n[r]))}(n[u.r],u.v),(i=u.r)?"url(#"+i+")":"none"):"none":"none"}}function ft(t,n,r){if(0===t)return n;if(1===t)return r;if(n&&r){var e=n.t;if(e===r.t)switch(n.t){case"c":return{t:e,v:w(t,n.v,r.v)};case"g":if(n.r===r.r)return{t:e,v:A(t,n.v,r.v),r:n.r}}}return y(t,n,r)}var st={blur:p,brightness:g,contrast:g,"drop-shadow":function(t,n,r){return 0===t?n:1===t?r:{blur:p(t,n.blur,r.blur),offset:m(t,n.offset,r.offset),color:w(t,n.color,r.color)}},grayscale:g,"hue-rotate":d,invert:g,opacity:g,saturate:g,sepia:g};function ct(t,n,r){if(0===t)return n;if(1===t)return r;var e=n.length;if(e!==r.length)return y(t,n,r);for(var i,u=[],o=0;o<e;o++){if(n[o].type!==r[o].type)return n;if(!(i=st[n[o].type]))return y(t,n,r);u.push({type:n.type,value:i(t,n[o].value,r[o].value)})}return u}var vt={blur:function(t){return t?function(n){t.setAttribute("stdDeviation",F(n))}:null},brightness:function(t,n,r){return(t=yt(r,n))?function(n){n=I(n),t.map((function(t){return t.setAttribute("slope",n)}))}:null},contrast:function(t,n,r){return(t=yt(r,n))?function(n){var r=I((1-n)/2);n=I(n),t.map((function(t){t.setAttribute("slope",n),t.setAttribute("intercept",r)}))}:null},"drop-shadow":function(t,n,r){var e=r.getElementById(n+"-blur");if(!e)return null;var i=r.getElementById(n+"-offset");if(!i)return null;var u=r.getElementById(n+"-flood");return u?function(t){e.setAttribute("stdDeviation",F(t.blur)),i.setAttribute("dx",I(t.offset.x)),i.setAttribute("dy",I(t.offset.y)),u.setAttribute("flood-color",B(t.color))}:null},grayscale:function(t){return t?function(n){t.setAttribute("values",E(function(t){return[.2126+.7874*(t=1-t),.7152-.7152*t,.0722-.0722*t,0,0,.2126-.2126*t,.7152+.2848*t,.0722-.0722*t,0,0,.2126-.2126*t,.7152-.7152*t,.0722+.9278*t,0,0,0,0,0,1,0]}(n)))}:null},"hue-rotate":function(t){return t?function(n){return t.setAttribute("values",I(n))}:null},invert:function(t,n,r){return(t=yt(r,n))?function(n){n=I(n)+" "+I(1-n),t.map((function(t){return t.setAttribute("tableValues",n)}))}:null},opacity:function(t,n,r){return(t=r.getElementById(n+"-A"))?function(n){return t.setAttribute("tableValues","0 "+I(n))}:null},saturate:function(t){return t?function(n){return t.setAttribute("values",I(n))}:null},sepia:function(t){return t?function(n){return t.setAttribute("values",E(function(t){return[.393+.607*(t=1-t),.769-.769*t,.189-.189*t,0,0,.349-.349*t,.686+.314*t,.168-.168*t,0,0,.272-.272*t,.534-.534*t,.131+.869*t,0,0,0,0,0,1,0]}(n)))}:null}};var ht=["R","G","B"];function yt(t,n){var r=ht.map((function(r){return t.getElementById(n+"-"+r)||null}));return-1!==r.indexOf(null)?null:r}var dt={fill:lt,"fill-opacity":ot,stroke:lt,"stroke-opacity":ot,"stroke-width":ut,"stroke-dashoffset":{f:I,i:d},"stroke-dasharray":at,opacity:ot,transform:function(n,r,e,i){if(!(n=function(n,r){if(!n||"object"!==t(n))return null;var e=!1;for(var i in n)n.hasOwnProperty(i)&&(n[i]&&n[i].length?(n[i].forEach((function(t){t.e&&(t.e=r(t.e))})),e=!0):delete n[i]);return e?n:null}(n,i)))return null;var u=function(t,i,u){var o=arguments.length>3&&void 0!==arguments[3]?arguments[3]:null;return n[t]?e(i,n[t],u):r&&r[t]?r[t]:o};return r&&r.a&&n.o?function(t){var r=e(t,n.o,tt);return rt.recomposeSelf(r,u("r",t,d,0)+r.a,u("k",t,m),u("s",t,m),u("t",t,m)).toString()}:function(t){return rt.recomposeSelf(u("o",t,X,null),u("r",t,d,0),u("k",t,m),u("s",t,m),u("t",t,m)).toString()}},"#filter":function(t,n,r,e,i,u,o,a){if(!n.items||!t||!t.length)return null;var l=function(t,n){var r=(t=t.map((function(t){return t&&vt[t[0]]?(n.getElementById(t[1]),vt[t[0]](n.getElementById(t[1]),t[1],n)):null}))).length;return function(n){for(var e=0;e<r;e++)t[e]&&t[e](n[e].value)}}(n.items,a);return l?(t=function(t,n){return t.map((function(t){return t.e=n(t.e),t}))}(t,e),function(n){l(r(n,t,ct))}):null},"#line":it,points:{f:E,i:x},d:et,r:ut,"#size":q,"#radius":j,_:function(t,n){if(Array.isArray(t))for(var r=0;r<t.length;r++)this[t[r]]=n;else this[t]=n}},gt=function(){function t(r){n(this,t),this.list=r,this.length=r.length}return e(t,[{key:"setAttribute",value:function(t,n){for(var r=this.list,e=0;e<this.length;e++)r[e].setAttribute(t,n)}},{key:"removeAttribute",value:function(t){for(var n=this.list,r=0;r<this.length;r++)n[r].removeAttribute(t)}},{key:"style",value:function(t,n){for(var r=this.list,e=0;e<this.length;e++)r[e].style[t]=n}}]),t}(),mt=/-./g,pt=function(t,n){return n.toUpperCase()};function bt(t){return"function"==typeof t?t:y}function wt(t){return t?"function"==typeof t?t:Array.isArray(t)?function(t){var n=arguments.length>1&&void 0!==arguments[1]?arguments[1]:o;if(!Array.isArray(t))return n;switch(t.length){case 1:return c(t[0])||n;case 2:return c(t[0],t[1])||n;case 4:return l(t[0],t[1],t[2],t[3])||n}return n}(t,null):function(t,n){var r=arguments.length>2&&void 0!==arguments[2]?arguments[2]:o;switch(t){case"linear":return o;case"steps":return c(n.steps||1,n.jump||0)||r;case"bezier":case"cubic-bezier":return l(n.x1||0,n.y1||0,n.x2||0,n.y2||0)||r}return r}(t.type,t.value,null):null}function At(t,n,r){var e=arguments.length>3&&void 0!==arguments[3]&&arguments[3],i=n.length-1;if(t<=n[0].t)return e?[0,0,n[0].v]:n[0].v;if(t>=n[i].t)return e?[i,1,n[i].v]:n[i].v;var u,o=n[0],a=null;for(u=1;u<=i;u++){if(!(t>n[u].t)){a=n[u];break}o=n[u]}return null==a?e?[i,1,n[i].v]:n[i].v:o.t===a.t?e?[u,1,a.v]:a.v:(t=(t-o.t)/(a.t-o.t),o.e&&(t=o.e(t)),e?[u,t,r(t,o.v,a.v)]:r(t,o.v,a.v))}function xt(t,n){var r=arguments.length>2&&void 0!==arguments[2]?arguments[2]:null;return t&&t.length?"function"!=typeof n?null:("function"!=typeof r&&(r=null),function(e){var i=At(e,t,n);return null!=i&&r&&(i=r(i)),i}):null}function kt(t,n){return t.t-n.t}function St(n,r,e,i,u){var o,a="@"===e[0],l="#"===e[0],f=dt[e],s=y;switch(a?(o=e.substr(1),e=o.replace(mt,pt)):l&&(e=e.substr(1)),t(f)){case"function":if(s=f(i,u,At,wt,e,a,r,n),l)return s;break;case"string":s=xt(i,bt(f));break;case"object":if((s=xt(i,bt(f.i),f.f))&&"function"==typeof f.u)return f.u(r,s,e,a,n)}return s?function(t,n,r){if(arguments.length>3&&void 0!==arguments[3]&&arguments[3])return t instanceof gt?function(e){return t.style(n,r(e))}:function(e){return t.style[n]=r(e)};if(Array.isArray(n)){var e=n.length;return function(i){var u=r(i);if(null==u)for(var o=0;o<e;o++)t[o].removeAttribute(n);else for(var a=0;a<e;a++)t[a].setAttribute(n,u)}}return function(e){var i=r(e);null==i?t.removeAttribute(n):t.setAttribute(n,i)}}(r,e,s,a):null}function _t(n,r,e,i){if(!i||"object"!==t(i))return null;var u=null,o=null;return Array.isArray(i)?o=function(t){if(!t||!t.length)return null;for(var n=0;n<t.length;n++)t[n].e&&(t[n].e=wt(t[n].e));return t.sort(kt)}(i):(o=i.keys,u=i.data||null),o?St(n,r,e,o,u):null}function Mt(t,n,r){if(!r)return null;var e=[];for(var i in r)if(r.hasOwnProperty(i)){var u=_t(t,n,i,r[i]);u&&e.push(u)}return e.length?e:null}function It(t,n){if(!n.duration||n.duration<0)return null;var r=function(t,n){if(!n)return null;var r=[];if(Array.isArray(n))for(var e=n.length,i=0;i<e;i++){var u=n[i];if(2===u.length){var o=null;if("string"==typeof u[0])o=t.getElementById(u[0]);else if(Array.isArray(u[0])){o=[];for(var a=0;a<u[0].length;a++)if("string"==typeof u[0][a]){var l=t.getElementById(u[0][a]);l&&o.push(l)}o=o.length?1===o.length?o[0]:new gt(o):null}if(o){var f=Mt(t,o,u[1]);f&&(r=r.concat(f))}}}else for(var s in n)if(n.hasOwnProperty(s)){var c=t.getElementById(s);if(c){var v=Mt(t,c,n[s]);v&&(r=r.concat(v))}}return r.length?r:null}(t,n.elements);return r?function(t,n){var r=arguments.length>2&&void 0!==arguments[2]?arguments[2]:1/0,e=arguments.length>3&&void 0!==arguments[3]?arguments[3]:1,i=arguments.length>4&&void 0!==arguments[4]&&arguments[4],u=arguments.length>5&&void 0!==arguments[5]?arguments[5]:1,o=t.length,a=e>0?n:0;i&&r%2==0&&(a=n-a);var l=null;return function(f,s){var c=f%n,v=1+(f-c)/n;s*=e,i&&v%2==0&&(s=-s);var h=!1;if(v>r)c=a,h=!0,-1===u&&(c=e>0?0:n);else if(s<0&&(c=n-c),c===l)return!1;l=c;for(var y=0;y<o;y++)t[y](c);return h}}(r,n.duration,n.iterations||1/0,n.direction||1,!!n.alternate,n.fill||1):null}var Et=function(){function t(r){var e=arguments.length>1&&void 0!==arguments[1]?arguments[1]:{};n(this,t),this._id=0,this._running=!1,this._animations=r,this.direction=e.direction||1,this.speed=e.speed||1,this.fps=e.fps||100,this.offset=e.offset||0}return e(t,[{key:"_start",value:function(){var t=this,n=arguments.length>0&&void 0!==arguments[0]?arguments[0]:0,r=-1/0,e=null,i={},u=function u(o){t._running=!0,null==e&&(e=o);var a=Math.round((o-e+n)*t.speed),l=t.fps?1e3/t.fps:0;if(a>r+l){t.offset=a,r=a;for(var f=t._animations,s=f.length,c=0,v=0;v<s;v++)i[v]?c++:(i[v]=f[v](a,t.direction),i[v]&&c++);if(c===s)return void t._stop()}t._id=window.requestAnimationFrame(u)};this._id=window.requestAnimationFrame(u)}},{key:"_stop",value:function(){this._id&&window.cancelAnimationFrame(this._id),this._running=!1}},{key:"play",value:function(){this._running||this._start(this.offset)}},{key:"stop",value:function(){this._stop(),this.offset=0;var t=this.direction,n=this._animations;requestAnimationFrame((function(){for(var r=0;r<n.length;r++)n[r](0,t)}))}},{key:"restart",value:function(){this._stop(),this.offset=0,this._start()}},{key:"pause",value:function(){this._stop()}},{key:"reverse",value:function(){this.direction=-this.direction}}],[{key:"build",value:function(n){if(!(n=function(t){if(!t||!t.root||!Array.isArray(t.animations))return null;var n=window.document.getElementById(t.root);if(!n)return null;var r=t.animations.map((function(t){return It(n,t)})).filter((function(t){return!!t}));return r.length?{element:n,animations:r,options:t.options||void 0}:null}(n)))return null;var r=n.element,e=n.options||{},i=new t(n.animations,n.options);return function(t,n,r){var e=arguments.length>3&&void 0!==arguments[3]?arguments[3]:null;if("click"===r){return void n.addEventListener("click",(function r(){n.removeEventListener("click",r),t.play()}))}if("hover"===r)return n.addEventListener("mouseenter",(function(){return t.play()})),void n.addEventListener("mouseleave","freeze"===e?function(){return t.pause()}:function(){return t.stop()});t.play()}(i,r,e.start,e.hover),i}}]),t}();return function(){for(var t=0,n=["ms","moz","webkit","o"],r=0;r<n.length&&!window.requestAnimationFrame;++r)window.requestAnimationFrame=window[n[r]+"RequestAnimationFrame"],window.cancelAnimationFrame=window[n[r]+"CancelAnimationFrame"]||window[n[r]+"CancelRequestAnimationFrame"];window.requestAnimationFrame||(window.requestAnimationFrame=function(n){var r=Date.now(),e=Math.max(0,16-(r-t)),i=window.setTimeout((function(){n(r+e)}),e);return t=r+e,i},window.cancelAnimationFrame=window.clearTimeout)}(),Et}));
__SVGATOR_PLAYER__.build({"root":"e58r8bw4afv71","animations":[{"duration":1000,"direction":1,"iterations":1,"fill":1,"alternate":false,"elements":{"e58r8bw4afv72":{"transform":{"data":{"o":{"x":120,"y":120,"type":"corner"},"t":{"x":-256.00033874285674,"y":-256.0007476857145}},"keys":{"s":[{"t":0,"v":{"x":0,"y":0}},{"t":400,"v":{"x":0.35000000000000003,"y":0.35000000000000003}},{"t":600,"v":{"x":0.25,"y":0.25}}]}}}}}],"options":{"start":"load","hover":"freeze"}})]]></script></svg>