<svg id="egosgjvfklwv1" xmlns="http://www.w3.org/2000/svg" xmlns:xlink="http://www.w3.org/1999/xlink" viewBox="0 0 240 240" shape-rendering="geometricPrecision" text-rendering="geometricPrecision" width="240" height="240"><g id="egosgjvfklwv2" transform="matrix(0.08000000000000 0 0 0.08000000000000 99.52307983413311 241.99659988780076)"><path id="egosgjvfklwv3" d="M504.423000,139.424000L504.423000,372.499000C504.423000,381.569000,497.071000,388.921000,488.001000,388.921000L23.922000,388.921000C14.852000,388.921000,7.500000,381.568000,7.500000,372.499000L7.500000,139.424000C7.500000,130.354000,14.852000,123.002000,23.922000,123.002000L488.001000,123.002000C497.071000,123.002000,504.423000,130.354000,504.423000,139.424000Z" transform="matrix(2 0 0 2 -255.96149999999972 -255.96150000499989)" fill="rgb(185,234,207)" stroke="none" stroke-width="1"/><path id="egosgjvfklwv4" d="M504.421000,139.421000L504.421000,372.501000C504.421000,381.571000,497.071000,388.921000,488.001000,388.921000L461.801000,388.921000C470.871000,388.921000,478.231000,381.571000,478.231000,372.501000L478.231000,139.421000C478.231000,130.351000,470.871000,123.001000,461.801000,123.001000L488.001000,123.001000C497.071000,123.001000,504.421000,130.351000,504.421000,139.421000Z" transform="matrix(2 0 0 2 -483.11099999999971 -255.96100000499990)" fill="rgb(145,222,182)" stroke="none" stroke-width="1"/><g id="egosgjvfklwv5"><path id="egosgjvfklwv6" d="M68.961000,377.583000C68.961000,381.487000,68.514000,385.276000,67.664000,388.922000L23.920000,388.922000C14.851000,388.922000,7.500000,381.570000,7.500000,372.502000L7.500000,328.915000C11.188000,328.051000,15.021000,327.590000,18.968000,327.590000C46.587000,327.589000,68.961000,349.978000,68.961000,377.583000Z" transform="matrix(2 0 0 2 -38.23049999999972 -358.25599998999991)" fill="rgb(70,204,141)" stroke="none" stroke-width="1"/><path id="egosgjvfklwv7" d="M68.961000,134.340000C68.961000,130.436000,68.514000,126.647000,67.664000,123.001000L23.920000,123.001000C14.851000,123.001000,7.500000,130.352000,7.500000,139.421000L7.500000,183.008000C11.188000,183.872000,15.021000,184.333000,18.968000,184.333000C46.587000,184.334000,68.961000,161.945000,68.961000,134.340000Z" transform="matrix(2 0 0 2 -38.23049999999972 -153.66700001999988)" fill="rgb(70,204,141)" stroke="none" stroke-width="1"/><path id="egosgjvfklwv8" d="M442.961000,377.583000C442.961000,381.487000,443.408000,385.276000,444.258000,388.922000L488.003000,388.922000C497.072000,388.922000,504.423000,381.570000,504.423000,372.502000L504.423000,328.915000C500.735000,328.051000,496.902000,327.590000,492.955000,327.590000C465.336000,327.589000,442.961000,349.978000,442.961000,377.583000Z" transform="matrix(2 0 0 2 -473.69199999999967 -358.25599998999991)" fill="rgb(70,204,141)" stroke="none" stroke-width="1"/></g><path id="egosgjvfklwv9" d="M492.951000,327.591000C496.901000,327.591000,500.731000,328.051000,504.421000,328.911000L504.421000,372.501000C504.421000,381.571000,497.071000,388.921000,488.001000,388.921000L461.801000,388.921000C470.871000,388.921000,478.231000,381.571000,478.231000,372.501000L478.231000,329.801000C482.881000,328.361000,487.831000,327.591000,492.951000,327.591000Z" transform="matrix(2 0 0 2 -483.11099999999971 -358.25600000499986)" fill="rgb(0,194,122)" stroke="none" stroke-width="1"/><path id="egosgjvfklwv10" d="M442.961000,134.340000C442.961000,130.436000,443.408000,126.647000,444.258000,123.001000L488.003000,123.001000C497.072000,123.001000,504.423000,130.352000,504.423000,139.421000L504.423000,183.008000C500.735000,183.872000,496.902000,184.333000,492.955000,184.333000C465.336000,184.334000,442.961000,161.945000,442.961000,134.340000Z" transform="matrix(2 0 0 2 -473.69199999999967 -153.66700001999988)" fill="rgb(70,204,141)" stroke="none" stroke-width="1"/><path id="egosgjvfklwv11" d="M504.421000,139.421000L504.421000,183.011000C500.731000,183.871000,496.901000,184.331000,492.951000,184.331000C487.831000,184.331000,482.881000,183.561000,478.231000,182.121000L478.231000,139.421000C478.231000,130.351000,470.871000,123.001000,461.801000,123.001000L488.001000,123.001000C497.071000,123.001000,504.421000,130.351000,504.421000,139.421000Z" transform="matrix(2 0 0 2 -483.11099999999971 -153.66600000499994)" fill="rgb(0,194,122)" stroke="none" stroke-width="1"/><path id="egosgjvfklwv12" d="M435.291000,230.085000L435.291000,281.838000C435.291000,286.081000,432.444000,289.806000,428.341000,290.886000C412.202000,295.134000,400.291000,309.839000,400.291000,327.312000L400.291000,327.412000C400.305000,332.670000,396.178000,336.992000,390.920000,336.992000L121.002000,336.992000C115.744000,336.992000,111.617000,332.670000,111.631000,327.412000C111.631000,327.379000,111.631000,327.345000,111.631000,327.312000C111.631000,309.839000,99.720000,295.134000,83.581000,290.886000C79.478000,289.806000,76.631000,286.081000,76.631000,281.838000L76.631000,230.085000C76.631000,225.842000,79.478000,222.117000,83.581000,221.037000C99.720000,216.789000,111.631000,202.084000,111.631000,184.611000C111.631000,184.578000,111.631000,184.544000,111.631000,184.511000C111.617000,179.253000,115.744000,174.931000,121.002000,174.931000L390.920000,174.931000C396.178000,174.931000,400.305000,179.253000,400.291000,184.511000L400.291000,184.611000C400.291000,202.084000,412.202000,216.789000,428.341000,221.037000C432.444000,222.117000,435.291000,225.842000,435.291000,230.085000Z" transform="matrix(2 0 0 2 -255.96099999999973 -255.96150000499989)" fill="rgb(70,204,141)" stroke="none" stroke-width="1"/><path id="egosgjvfklwv13" d="M435.291000,230.081000L435.291000,281.841000C435.291000,286.081000,432.441000,289.801000,428.341000,290.881000C412.201000,295.131000,400.291000,309.841000,400.291000,327.311000L400.291000,327.411000C400.301000,332.671000,396.181000,336.991000,390.921000,336.991000L370.421000,336.991000C375.681000,336.991000,379.801000,332.671000,379.791000,327.411000L379.791000,327.311000C379.791000,309.841000,391.701000,281.391000,407.841000,277.141000C411.941000,276.061000,414.791000,272.341000,414.791000,268.091000L414.791000,241.511000C414.791000,237.271000,411.941000,233.541000,407.841000,232.461000C391.701000,228.211000,379.791000,202.081000,379.791000,184.611000L379.791000,184.511000C379.801000,179.251000,375.681000,174.931000,370.421000,174.931000L390.921000,174.931000C396.181000,174.931000,400.301000,179.251000,400.291000,184.511000L400.291000,184.611000C400.291000,202.081000,412.201000,216.791000,428.341000,221.041000C432.441000,222.121000,435.291000,225.841000,435.291000,230.081000Z" transform="matrix(2 0 0 2 -402.85599999999971 -255.96100000499990)" fill="rgb(0,194,122)" stroke="none" stroke-width="1"/><circle id="egosgjvfklwv14" r="90.435000" transform="matrix(2 0 0 2 255.96100000000035 255.96099999500001)" fill="rgb(253,180,65)" stroke="none" stroke-width="1"/><path id="egosgjvfklwv15" d="M346.392000,255.966000C346.392000,305.903000,305.908000,346.397000,255.961000,346.397000C224.382000,346.397000,196.591000,330.212000,180.426000,305.690000C196.266000,319.337000,216.879000,327.582000,239.420000,327.582000C289.367000,327.582000,329.861000,287.088000,329.861000,237.141000C329.861000,218.783000,324.388000,201.704000,314.996000,187.448000C334.218000,204.039000,346.392000,228.581000,346.392000,255.966000Z" transform="matrix(2 0 0 2 -263.40899999999971 -266.92250000499990)" fill="rgb(254,166,19)" stroke="none" stroke-width="1"/><g id="egosgjvfklwv16"><path id="egosgjvfklwv17" d="M266.299000,248.454000C265.563000,248.194000,264.819000,247.927000,264.071000,247.656000L264.071000,226.858000C265.137000,227.427000,265.798000,227.945000,265.986000,228.101000C266.169000,228.279000,266.228000,228.317000,266.451000,228.489000L268.714000,230.234000C271.994000,232.764000,276.704000,232.156000,279.234000,228.876000C281.764000,225.596000,281.155000,220.886000,277.876000,218.356000L275.835000,216.782000C273.463000,214.692000,269.355000,212.236000,264.071000,210.934000L264.071000,207.266000C264.071000,203.124000,260.713000,199.766000,256.571000,199.766000C252.429000,199.766000,249.071000,203.124000,249.071000,207.266000L249.071000,210.917000C248.409000,211.074000,247.745000,211.237000,247.070000,211.440000C238.629000,213.982000,232.326000,221.182000,230.622000,230.230000C229.055000,238.548000,231.767000,246.607000,237.700000,251.260000C240.613000,253.544000,244.198000,255.625000,249.072000,257.806000L249.072000,285.863000C245.769000,285.466000,243.411000,284.438000,239.567000,281.923000C236.101000,279.655000,231.452000,280.627000,229.185000,284.093000C226.917000,287.559000,227.889000,292.208000,231.355000,294.475000C238.052000,298.856000,242.857000,300.428000,249.072000,300.906000L249.072000,304.655000C249.072000,308.797000,252.430000,312.155000,256.572000,312.155000C260.714000,312.155000,264.072000,308.797000,264.072000,304.655000L264.072000,299.772000C274.996000,296.342000,281.982000,286.719000,283.579000,277.222000C285.729000,264.430000,278.785000,252.868000,266.299000,248.454000ZM249.071000,240.925000C248.306000,240.445000,247.592000,239.956000,246.957000,239.458000C245.470000,238.291000,244.844000,235.760000,245.363000,233.008000C245.758000,230.911000,246.931000,228.483000,249.071000,226.952000ZM268.786000,274.738000C268.288000,277.703000,266.692000,280.792000,264.072000,283L264.072000,263.900000C269.358000,267.124000,269.179000,272.396000,268.786000,274.738000Z" transform="matrix(2 0 0 2 -255.96325845999974 -255.96050000499991)" fill="rgb(0,0,0)" stroke="none" stroke-width="1"/><g id="egosgjvfklwv18"><path id="egosgjvfklwv19" d="M488.003000,115.502000L488.001000,115.502000L23.922000,115.502000L23.920000,115.502000C10.731000,115.502000,-0,126.232000,-0,139.422000L-0,139.424000L-0,372.499000L-0,372.501000C-0,385.690000,10.730000,396.421000,23.920000,396.421000L23.922000,396.421000L488.001000,396.421000L488.003000,396.421000C501.192000,396.421000,511.923000,385.691000,511.923000,372.501000L511.923000,372.499000L511.923000,139.424000L511.923000,139.422000C511.923000,126.232000,501.192000,115.502000,488.003000,115.502000ZM15,139.424000C15,134.504000,19.002000,130.502000,23.922000,130.502000L61.290000,130.502000C61.404000,131.775000,61.462000,133.056000,61.462000,134.340000C61.462000,157.771000,42.399000,176.834000,18.969000,176.834000C17.644000,176.834000,16.320000,176.772000,15.001000,176.649000L15.001000,139.424000ZM61.290000,381.421000L23.922000,381.421000C19.003000,381.421000,15,377.419000,15,372.499000L15,335.274000C16.319000,335.151000,17.644000,335.089000,18.968000,335.089000C42.399000,335.089000,61.461000,354.152000,61.461000,377.583000C61.461000,378.867000,61.404000,380.148000,61.290000,381.421000ZM496.923000,372.499000C496.923000,377.418000,492.921000,381.421000,488.001000,381.421000L450.633000,381.421000C450.519000,380.148000,450.461000,378.867000,450.461000,377.583000C450.461000,354.152000,469.524000,335.089000,492.954000,335.089000C494.278000,335.089000,495.603000,335.151000,496.922000,335.274000L496.922000,372.499000ZM496.923000,176.649000C495.604000,176.772000,494.279000,176.834000,492.955000,176.834000C483.534000,176.834000,474.612000,173.817000,467.154000,168.108000C463.866000,165.590000,459.158000,166.216000,456.640000,169.505000C454.122000,172.794000,454.748000,177.502000,458.037000,180.019000C468.135000,187.748000,480.209000,191.833000,492.955000,191.833000C494.279000,191.833000,495.602000,191.772000,496.923000,191.681000L496.923000,320.239000C495.602000,320.148000,494.279000,320.087000,492.955000,320.087000C461.253000,320.087000,435.462000,345.879000,435.462000,377.581000C435.462000,378.863000,435.517000,380.143000,435.602000,381.419000L76.321000,381.419000C76.406000,380.143000,76.461000,378.863000,76.461000,377.581000C76.461000,345.879000,50.669000,320.087000,18.968000,320.087000C17.644000,320.087000,16.321000,320.148000,15,320.239000L15,191.682000C16.321000,191.773000,17.644000,191.834000,18.968000,191.834000C50.670000,191.834000,76.461000,166.042000,76.461000,134.340000C76.461000,133.058000,76.406000,131.778000,76.321000,130.502000L435.601000,130.502000C435.516000,131.778000,435.461000,133.058000,435.461000,134.340000C435.461000,138.375000,435.882000,142.407000,436.713000,146.324000C437.573000,150.376000,441.556000,152.965000,445.606000,152.105000C449.658000,151.246000,452.246000,147.264000,451.387000,143.212000C450.773000,140.316000,450.461000,137.332000,450.461000,134.340000C450.461000,133.056000,450.519000,131.775000,450.633000,130.502000L488.001000,130.502000C492.920000,130.502000,496.923000,134.504000,496.923000,139.424000Z" transform="matrix(2 0 0 2 -255.96149999999972 -255.96150000499989)" fill="rgb(0,0,0)" stroke="none" stroke-width="1"/><path id="egosgjvfklwv20" d="M430.250000,213.784000C417.026000,210.304000,407.791000,198.307000,407.791000,184.611000L407.791000,184.530000C407.803000,179.920000,406.032000,175.599000,402.804000,172.363000C399.633000,169.183000,395.412000,167.432000,390.920000,167.432000L297.811000,167.432000C285.114000,161.405000,270.925000,158.027000,255.961000,158.027000C240.997000,158.027000,226.808000,161.406000,214.111000,167.432000L121.002000,167.432000C116.510000,167.432000,112.290000,169.183000,109.118000,172.363000C105.890000,175.599000,104.118000,179.921000,104.131000,184.511000L104.131000,184.612000C104.131000,198.308000,94.896000,210.304000,81.672000,213.785000C74.288000,215.729000,69.131000,222.432000,69.131000,230.086000L69.131000,281.839000C69.131000,289.493000,74.288000,296.196000,81.672000,298.140000C94.896000,301.620000,104.131000,313.617000,104.131000,327.313000L104.131000,327.394000C104.119000,332.004000,105.890000,336.325000,109.118000,339.561000C112.289000,342.741000,116.510000,344.492000,121.002000,344.492000L140.294000,344.492000C144.436000,344.492000,147.794000,341.134000,147.794000,336.992000C147.794000,332.850000,144.436000,329.492000,140.294000,329.492000L121.002000,329.492000C120.510000,329.492000,120.085000,329.316000,119.738000,328.968000C119.510000,328.739000,119.129000,328.236000,119.131000,327.413000L119.131000,327.312000C119.131000,306.808000,105.298000,288.847000,85.490000,283.633000C84.690000,283.422000,84.131000,282.684000,84.131000,281.838000L84.131000,230.085000C84.131000,229.239000,84.690000,228.501000,85.490000,228.290000C105.297000,223.077000,119.131000,205.115000,119.131000,184.611000L119.131000,184.491000C119.129000,183.687000,119.511000,183.184000,119.738000,182.955000C120.085000,182.607000,120.510000,182.431000,121.002000,182.431000L191.348000,182.431000C170.933000,200.392000,158.026000,226.696000,158.026000,255.961000C158.026000,285.226000,170.933000,311.529000,191.348000,329.491000L174.961000,329.491000C170.819000,329.491000,167.461000,332.849000,167.461000,336.991000C167.461000,341.133000,170.819000,344.491000,174.961000,344.491000L214.111000,344.491000C226.808000,350.518000,240.997000,353.896000,255.961000,353.896000C270.925000,353.896000,285.114000,350.517000,297.811000,344.491000L390.920000,344.491000C395.412000,344.491000,399.632000,342.740000,402.804000,339.560000C406.032000,336.324000,407.804000,332.002000,407.791000,327.412000L407.791000,327.311000C407.791000,313.615000,417.026000,301.619000,430.250000,298.138000C437.634000,296.194000,442.791000,289.491000,442.791000,281.837000L442.791000,230.084000C442.792000,222.431000,437.634000,215.728000,430.250000,213.784000ZM255.961000,338.896000C210.231000,338.896000,173.026000,301.691000,173.026000,255.961000C173.026000,210.231000,210.231000,173.026000,255.961000,173.026000C301.691000,173.026000,338.896000,210.231000,338.896000,255.961000C338.896000,301.691000,301.692000,338.896000,255.961000,338.896000ZM427.792000,281.838000C427.792000,282.684000,427.233000,283.422000,426.433000,283.633000C406.626000,288.846000,392.792000,306.808000,392.792000,327.312000L392.792000,327.432000C392.794000,328.236000,392.412000,328.739000,392.185000,328.968000C391.838000,329.316000,391.413000,329.492000,390.921000,329.492000L320.575000,329.492000C340.990000,311.531000,353.897000,285.227000,353.897000,255.962000C353.897000,226.697000,340.990000,200.394000,320.575000,182.432000L390.921000,182.432000C391.413000,182.432000,391.838000,182.608000,392.185000,182.956000C392.413000,183.185000,392.794000,183.688000,392.792000,184.511000L392.792000,184.612000C392.792000,205.116000,406.625000,223.077000,426.433000,228.291000C427.233000,228.502000,427.792000,229.240000,427.792000,230.086000Z" transform="matrix(2 0 0 2 -255.96100007499973 -255.96150000499989)" fill="rgb(0,0,0)" stroke="none" stroke-width="1"/><path id="egosgjvfklwv21" d="M108.485000,248.461000C104.343000,248.461000,100.985000,251.819000,100.985000,255.961000C100.985000,260.103000,104.343000,263.461000,108.485000,263.461000L125.533000,263.461000C129.675000,263.461000,133.033000,260.103000,133.033000,255.961000C133.033000,251.819000,129.675000,248.461000,125.533000,248.461000Z" transform="matrix(2 0 0 2 -117.00899999999972 -255.96100000499990)" fill="rgb(0,0,0)" stroke="none" stroke-width="1"/><path id="egosgjvfklwv22" d="M403.438000,248.461000L386.390000,248.461000C382.248000,248.461000,378.890000,251.819000,378.890000,255.961000C378.890000,260.103000,382.248000,263.461000,386.390000,263.461000L403.438000,263.461000C407.580000,263.461000,410.938000,260.103000,410.938000,255.961000C410.938000,251.819000,407.580000,248.461000,403.438000,248.461000Z" transform="matrix(2 0 0 2 -394.91399999999970 -255.96100000499990)" fill="rgb(0,0,0)" stroke="none" stroke-width="1"/></g></g></g><script><![CDATA[!function(t,n){"object"==typeof exports&&"undefined"!=typeof module?module.exports=n():"function"==typeof define&&define.amd?define(n):(t=t||self).__SVGATOR_PLAYER__=n()}(this,(function(){"use strict";function t(n){return(t="function"==typeof Symbol&&"symbol"==typeof Symbol.iterator?function(t){return typeof t}:function(t){return t&&"function"==typeof Symbol&&t.constructor===Symbol&&t!==Symbol.prototype?"symbol":typeof t})(n)}function n(t,n){if(!(t instanceof n))throw new TypeError("Cannot call a class as a function")}function r(t,n){for(var r=0;r<n.length;r++){var e=n[r];e.enumerable=e.enumerable||!1,e.configurable=!0,"value"in e&&(e.writable=!0),Object.defineProperty(t,e.key,e)}}function e(t,n,e){return n&&r(t.prototype,n),e&&r(t,e),t}var i=1e-5,u=Math.abs;function o(t){return t}function a(t,n,r){var e=1-r;return 3*r*e*(t*e+n*r)+r*r*r}function l(){var t=arguments.length>0&&void 0!==arguments[0]?arguments[0]:0,n=arguments.length>1&&void 0!==arguments[1]?arguments[1]:0,r=arguments.length>2&&void 0!==arguments[2]?arguments[2]:1,e=arguments.length>3&&void 0!==arguments[3]?arguments[3]:1;return t<0||t>1||r<0||r>1?null:u(t-n)<=i&&u(r-e)<=i?o:function(o){if(o<=0)return t>0?o*n/t:0===n&&r>0?o*e/r:0;if(o>=1)return r<1?1+(o-1)*(e-1)/(r-1):1===r&&t<1?1+(o-1)*(n-1)/(t-1):1;for(var l,f=0,s=1;f<s;){var c=a(t,r,l=(f+s)/2);if(u(o-c)<i)break;c<o?f=l:s=l}return a(n,e,l)}}function f(){return 1}function s(t){return 1===t?1:0}function c(){var t=arguments.length>0&&void 0!==arguments[0]?arguments[0]:1,n=arguments.length>1&&void 0!==arguments[1]?arguments[1]:0;if(1===t){if(0===n)return s;if(1===n)return f}var r=1/t;return function(t){return t>=1?1:(t+=n*r)-t%r}}function v(t){var n=arguments.length>1&&void 0!==arguments[1]?arguments[1]:2;if(Number.isInteger(t))return t;var r=Math.pow(10,n);return Math.round(t*r)/r}var h=Math.PI/180;function y(t,n,r){return t>=.5?r:n}function d(t,n,r){return 0===t||n===r?n:t*(r-n)+n}function g(t,n,r){var e=d(t,n,r);return e<=0?0:e}function m(t,n,r){return 0===t?n:1===t?r:{x:d(t,n.x,r.x),y:d(t,n.y,r.y)}}function p(t,n,r){return 0===t?n:1===t?r:{x:g(t,n.x,r.x),y:g(t,n.y,r.y)}}function b(t,n,r){var e=function(t,n,r){return Math.round(d(t,n,r))}(t,n,r);return e<=0?0:e>=255?255:e}function w(t,n,r){return 0===t?n:1===t?r:{r:b(t,n.r,r.r),g:b(t,n.g,r.g),b:b(t,n.b,r.b),a:d(t,null==n.a?1:n.a,null==r.a?1:r.a)}}function A(t,n,r){if(0===t)return n;if(1===t)return r;var e=n.length;if(e!==r.length)return y(t,n,r);for(var i=[],u=0;u<e;u++)i.push(w(t,n[u],r[u]));return i}function x(t,n,r){var e=n.length;if(e!==r.length)return y(t,n,r);for(var i=new Array(e),u=0;u<e;u++)i[u]=d(t,n[u],r[u]);return i}function k(t,n){for(var r=[],e=0;e<t;e++)r.push(n);return r}function S(t,n){if(--n<=0)return t;var r=(t=Object.assign([],t)).length;do{for(var e=0;e<r;e++)t.push(t[e])}while(--n>0);return t}var _=6,M=/\.0+$/g;function I(t){return Number.isInteger(t)?t+"":t.toFixed(_).replace(M,"")}function E(t){var n=arguments.length>1&&void 0!==arguments[1]?arguments[1]:" ";return t&&t.length?t.map(I).join(n):""}function F(t){return I(t.x)+","+I(t.y)}function B(t){return t?null==t.a||t.a>=1?"rgb("+t.r+","+t.g+","+t.b+")":"rgba("+t.r+","+t.g+","+t.b+","+t.a+")":"transparent"}var j={f:null,i:p,u:function(t,n){return function(r){var e=n(r);t.setAttribute("rx",I(e.x)),t.setAttribute("ry",I(e.y))}}},q={f:null,i:function(t,n,r){return 0===t?n:1===t?r:{width:g(t,n.width,r.width),height:g(t,n.height,r.height)}},u:function(t,n){return function(r){var e=n(r);t.setAttribute("width",I(e.width)),t.setAttribute("height",I(e.height))}}},P=Math.sin,O=Math.cos,z=Math.acos,L=Math.asin,C=Math.tan,R=Math.atan2,T=Math.PI/180,V=180/Math.PI,D=Math.sqrt,N=function(){function t(){var r=arguments.length>0&&void 0!==arguments[0]?arguments[0]:1,e=arguments.length>1&&void 0!==arguments[1]?arguments[1]:0,i=arguments.length>2&&void 0!==arguments[2]?arguments[2]:0,u=arguments.length>3&&void 0!==arguments[3]?arguments[3]:1,o=arguments.length>4&&void 0!==arguments[4]?arguments[4]:0,a=arguments.length>5&&void 0!==arguments[5]?arguments[5]:0;n(this,t),this.m=[r,e,i,u,o,a],this.i=null,this.w=null,this.s=null}return e(t,[{key:"point",value:function(t,n){var r=this.m;return{x:r[0]*t+r[2]*n+r[4],y:r[1]*t+r[3]*n+r[5]}}},{key:"translateSelf",value:function(){var t=arguments.length>0&&void 0!==arguments[0]?arguments[0]:0,n=arguments.length>1&&void 0!==arguments[1]?arguments[1]:0;if(!t&&!n)return this;var r=this.m;return r[4]+=r[0]*t+r[2]*n,r[5]+=r[1]*t+r[3]*n,this.w=this.s=this.i=null,this}},{key:"rotateSelf",value:function(){var t=arguments.length>0&&void 0!==arguments[0]?arguments[0]:0;if(t%=360){var n=P(t*=T),r=O(t),e=this.m,i=e[0],u=e[1];e[0]=i*r+e[2]*n,e[1]=u*r+e[3]*n,e[2]=e[2]*r-i*n,e[3]=e[3]*r-u*n,this.w=this.s=this.i=null}return this}},{key:"scaleSelf",value:function(){var t=arguments.length>0&&void 0!==arguments[0]?arguments[0]:1,n=arguments.length>1&&void 0!==arguments[1]?arguments[1]:1;if(1!==t||1!==n){var r=this.m;r[0]*=t,r[1]*=t,r[2]*=n,r[3]*=n,this.w=this.s=this.i=null}return this}},{key:"skewSelf",value:function(t,n){if(n%=360,(t%=360)||n){var r=this.m,e=r[0],i=r[1],u=r[2],o=r[3];t&&(t=C(t*T),r[2]+=e*t,r[3]+=i*t),n&&(n=C(n*T),r[0]+=u*n,r[1]+=o*n),this.w=this.s=this.i=null}return this}},{key:"resetSelf",value:function(){var t=arguments.length>0&&void 0!==arguments[0]?arguments[0]:1,n=arguments.length>1&&void 0!==arguments[1]?arguments[1]:0,r=arguments.length>2&&void 0!==arguments[2]?arguments[2]:0,e=arguments.length>3&&void 0!==arguments[3]?arguments[3]:1,i=arguments.length>4&&void 0!==arguments[4]?arguments[4]:0,u=arguments.length>5&&void 0!==arguments[5]?arguments[5]:0,o=this.m;return o[0]=t,o[1]=n,o[2]=r,o[3]=e,o[4]=i,o[5]=u,this.w=this.s=this.i=null,this}},{key:"recomposeSelf",value:function(){var t=arguments.length>0&&void 0!==arguments[0]?arguments[0]:null,n=arguments.length>1&&void 0!==arguments[1]?arguments[1]:null,r=arguments.length>2&&void 0!==arguments[2]?arguments[2]:null,e=arguments.length>3&&void 0!==arguments[3]?arguments[3]:null,i=arguments.length>4&&void 0!==arguments[4]?arguments[4]:null;return this.isIdentity||this.resetSelf(),t&&(t.x||t.y)&&this.translateSelf(t.x,t.y),n&&this.rotateSelf(n),r&&(r.x&&this.skewSelf(r.x,0),r.y&&this.skewSelf(0,r.y)),!e||1===e.x&&1===e.y||this.scaleSelf(e.x,e.y),i&&(i.x||i.y)&&this.translateSelf(i.x,i.y),this}},{key:"decompose",value:function(){var t=arguments.length>0&&void 0!==arguments[0]?arguments[0]:0,n=arguments.length>1&&void 0!==arguments[1]?arguments[1]:0,r=this.m,e=r[0]*r[0]+r[1]*r[1],i=[[r[0],r[1]],[r[2],r[3]]],u=D(e);if(0===u)return{origin:{x:r[4],y:r[5]},translate:{x:t,y:n},scale:{x:0,y:0},skew:{x:0,y:0},rotate:0};i[0][0]/=u,i[0][1]/=u;var o=r[0]*r[3]-r[1]*r[2]<0;o&&(u=-u);var a=i[0][0]*i[1][0]+i[0][1]*i[1][1];i[1][0]-=i[0][0]*a,i[1][1]-=i[0][1]*a;var l=D(i[1][0]*i[1][0]+i[1][1]*i[1][1]);if(0===l)return{origin:{x:r[4],y:r[5]},translate:{x:t,y:n},scale:{x:u,y:0},skew:{x:0,y:0},rotate:0};i[1][0]/=l,i[1][1]/=l,a/=l;var f=0;return i[1][1]<0?(f=z(i[1][1])*V,i[0][1]<0&&(f=360-f)):f=L(i[0][1])*V,o&&(f=-f),a=R(a,D(i[0][0]*i[0][0]+i[0][1]*i[0][1]))*V,{origin:{x:r[4],y:r[5]},translate:{x:t,y:n},scale:{x:u,y:l},skew:{x:a,y:0},rotate:f}}},{key:"toString",value:function(){return null===this.s&&(this.s="matrix("+this.m.map($).join(" ")+")"),this.s}},{key:"determinant",get:function(){var t=this.m;return t[0]*t[3]-t[1]*t[2]}},{key:"isIdentity",get:function(){if(null===this.i){var t=this.m;this.i=1===t[0]&&0===t[1]&&0===t[2]&&1===t[3]&&0===t[4]&&0===t[5]}return this.i}}]),t}(),G=/\.0+$/;function $(t){return Number.isInteger(t)?t:t.toFixed(14).replace(G,"")}Object.freeze({M:2,L:2,Z:0,H:1,V:1,C:6,Q:4,T:2,S:4,A:7});function H(t,n,r){return t+(n-t)*r}function Q(t,n,r){var e=arguments.length>3&&void 0!==arguments[3]&&arguments[3],i={x:H(t.x,n.x,r),y:H(t.y,n.y,r)};return e&&(i.a=function(t,n){return Math.atan2(n.y-t.y,n.x-t.x)}(t,n)),i}function U(t,n,r,e){var i=1-e;return i*i*t+2*i*e*n+e*e*r}function Y(t,n,r,e){return 2*(1-e)*(n-t)+2*e*(r-n)}function Z(t,n,r,e){var i=arguments.length>4&&void 0!==arguments[4]&&arguments[4],u={x:U(t.x,n.x,r.x,e),y:U(t.y,n.y,r.y,e)};return i&&(u.a=function(t,n,r,e){return Math.atan2(Y(t.y,n.y,r.y,e),Y(t.x,n.x,r.x,e))}(t,n,r,e)),u}function J(t,n,r,e,i){var u=i*i;return i*u*(e-t+3*(n-r))+3*u*(t+r-2*n)+3*i*(n-t)+t}function K(t,n,r,e,i){var u=1-i;return 3*(u*u*(n-t)+2*u*i*(r-n)+i*i*(e-r))}function W(t,n,r,e,i){var u=arguments.length>5&&void 0!==arguments[5]&&arguments[5],o={x:J(t.x,n.x,r.x,e.x,i),y:J(t.y,n.y,r.y,e.y,i)};return u&&(o.a=function(t,n,r,e,i){return Math.atan2(K(t.y,n.y,r.y,e.y,i),K(t.x,n.x,r.x,e.x,i))}(t,n,r,e,i)),o}function X(t,n,r){var e,i=arguments.length>3&&void 0!==arguments[3]&&arguments[3];if(nt(n)){if(null!=(e=r).start&&!nt(e))return Z(n,r.start,r,t,i)}else if(nt(r)){if(n.end)return Z(n,n.end,r,t,i)}else{if(n.end)return r.start?W(n,n.end,r.start,r,t,i):Z(n,n.end,r,t,i);if(r.start)return Z(n,r.start,r,t,i)}return Q(n,r,t,i)}function tt(t,n,r){var e=X(t,n,r,!0);return e.a=function(t){return arguments.length>1&&void 0!==arguments[1]&&arguments[1]?t+Math.PI:t}(e.a)/h,e}function nt(t){return!t.type||"corner"===t.type}var rt=new N;var et={f:function(t){return t?t.join(" "):""},i:function(n,r,e){if(0===n)return r;if(1===n)return e;var i=r.length;if(i!==e.length)return y(n,r,e);for(var u,o=new Array(i),a=0;a<i;a++){if((u=t(r[a]))!==t(e[a]))return y(n,r,e);if("number"===u)o[a]=d(n,r[a],e[a]);else{if(r[a]!==e[a])return y(n,r,e);o[a]=r[a]}}return o}},it={f:null,i:x,u:function(t,n){return function(r){var e=n(r);t.setAttribute("x1",I(e[0])),t.setAttribute("y1",I(e[1])),t.setAttribute("x2",I(e[2])),t.setAttribute("y2",I(e[3]))}}},ut={f:I,i:d},ot={f:I,i:function(t,n,r){var e=d(t,n,r);return e<=0?0:e>=1?1:e}},at={f:E,i:function(t,n,r){var e,i,u,o=n.length,a=r.length;if(o!==a)if(0===o)n=k(o=a,0);else if(0===a)a=o,r=k(o,0);else{var l=(u=(e=o)*(i=a)/function(t,n){for(var r;n;)r=n,n=t%n,t=r;return t||1}(e,i))<0?-u:u;n=S(n,Math.floor(l/o)),r=S(r,Math.floor(l/a)),o=a=l}for(var f=[],s=0;s<o;s++)f.push(v(g(t,n[s],r[s]),6));return f}};function lt(t,n,r,e,i,u,o,a){return n=function(t,n,r){for(var e,i,u,o=t.length-1,a={},l=0;l<=o;l++)(e=t[l]).e&&(e.e=n(e.e)),e.v&&"g"===(i=e.v).t&&i.r&&(u=r.getElementById(i.r))&&(a[i.r]=u.querySelectorAll("stop"));return a}(t,e,a),function(e){var i,u=r(e,t,ft);return u?"c"===u.t?B(u.v):"g"===u.t?(n[u.r]&&function(t,n){for(var r=0,e=t.length;r<e;r++)t[r].setAttribute("stop-color",B(n[r]))}(n[u.r],u.v),(i=u.r)?"url(#"+i+")":"none"):"none":"none"}}function ft(t,n,r){if(0===t)return n;if(1===t)return r;if(n&&r){var e=n.t;if(e===r.t)switch(n.t){case"c":return{t:e,v:w(t,n.v,r.v)};case"g":if(n.r===r.r)return{t:e,v:A(t,n.v,r.v),r:n.r}}}return y(t,n,r)}var st={blur:p,brightness:g,contrast:g,"drop-shadow":function(t,n,r){return 0===t?n:1===t?r:{blur:p(t,n.blur,r.blur),offset:m(t,n.offset,r.offset),color:w(t,n.color,r.color)}},grayscale:g,"hue-rotate":d,invert:g,opacity:g,saturate:g,sepia:g};function ct(t,n,r){if(0===t)return n;if(1===t)return r;var e=n.length;if(e!==r.length)return y(t,n,r);for(var i,u=[],o=0;o<e;o++){if(n[o].type!==r[o].type)return n;if(!(i=st[n[o].type]))return y(t,n,r);u.push({type:n.type,value:i(t,n[o].value,r[o].value)})}return u}var vt={blur:function(t){return t?function(n){t.setAttribute("stdDeviation",F(n))}:null},brightness:function(t,n,r){return(t=yt(r,n))?function(n){n=I(n),t.map((function(t){return t.setAttribute("slope",n)}))}:null},contrast:function(t,n,r){return(t=yt(r,n))?function(n){var r=I((1-n)/2);n=I(n),t.map((function(t){t.setAttribute("slope",n),t.setAttribute("intercept",r)}))}:null},"drop-shadow":function(t,n,r){var e=r.getElementById(n+"-blur");if(!e)return null;var i=r.getElementById(n+"-offset");if(!i)return null;var u=r.getElementById(n+"-flood");return u?function(t){e.setAttribute("stdDeviation",F(t.blur)),i.setAttribute("dx",I(t.offset.x)),i.setAttribute("dy",I(t.offset.y)),u.setAttribute("flood-color",B(t.color))}:null},grayscale:function(t){return t?function(n){t.setAttribute("values",E(function(t){return[.2126+.7874*(t=1-t),.7152-.7152*t,.0722-.0722*t,0,0,.2126-.2126*t,.7152+.2848*t,.0722-.0722*t,0,0,.2126-.2126*t,.7152-.7152*t,.0722+.9278*t,0,0,0,0,0,1,0]}(n)))}:null},"hue-rotate":function(t){return t?function(n){return t.setAttribute("values",I(n))}:null},invert:function(t,n,r){return(t=yt(r,n))?function(n){n=I(n)+" "+I(1-n),t.map((function(t){return t.setAttribute("tableValues",n)}))}:null},opacity:function(t,n,r){return(t=r.getElementById(n+"-A"))?function(n){return t.setAttribute("tableValues","0 "+I(n))}:null},saturate:function(t){return t?function(n){return t.setAttribute("values",I(n))}:null},sepia:function(t){return t?function(n){return t.setAttribute("values",E(function(t){return[.393+.607*(t=1-t),.769-.769*t,.189-.189*t,0,0,.349-.349*t,.686+.314*t,.168-.168*t,0,0,.272-.272*t,.534-.534*t,.131+.869*t,0,0,0,0,0,1,0]}(n)))}:null}};var ht=["R","G","B"];function yt(t,n){var r=ht.map((function(r){return t.getElementById(n+"-"+r)||null}));return-1!==r.indexOf(null)?null:r}var dt={fill:lt,"fill-opacity":ot,stroke:lt,"stroke-opacity":ot,"stroke-width":ut,"stroke-dashoffset":{f:I,i:d},"stroke-dasharray":at,opacity:ot,transform:function(n,r,e,i){if(!(n=function(n,r){if(!n||"object"!==t(n))return null;var e=!1;for(var i in n)n.hasOwnProperty(i)&&(n[i]&&n[i].length?(n[i].forEach((function(t){t.e&&(t.e=r(t.e))})),e=!0):delete n[i]);return e?n:null}(n,i)))return null;var u=function(t,i,u){var o=arguments.length>3&&void 0!==arguments[3]?arguments[3]:null;return n[t]?e(i,n[t],u):r&&r[t]?r[t]:o};return r&&r.a&&n.o?function(t){var r=e(t,n.o,tt);return rt.recomposeSelf(r,u("r",t,d,0)+r.a,u("k",t,m),u("s",t,m),u("t",t,m)).toString()}:function(t){return rt.recomposeSelf(u("o",t,X,null),u("r",t,d,0),u("k",t,m),u("s",t,m),u("t",t,m)).toString()}},"#filter":function(t,n,r,e,i,u,o,a){if(!n.items||!t||!t.length)return null;var l=function(t,n){var r=(t=t.map((function(t){return t&&vt[t[0]]?(n.getElementById(t[1]),vt[t[0]](n.getElementById(t[1]),t[1],n)):null}))).length;return function(n){for(var e=0;e<r;e++)t[e]&&t[e](n[e].value)}}(n.items,a);return l?(t=function(t,n){return t.map((function(t){return t.e=n(t.e),t}))}(t,e),function(n){l(r(n,t,ct))}):null},"#line":it,points:{f:E,i:x},d:et,r:ut,"#size":q,"#radius":j,_:function(t,n){if(Array.isArray(t))for(var r=0;r<t.length;r++)this[t[r]]=n;else this[t]=n}},gt=function(){function t(r){n(this,t),this.list=r,this.length=r.length}return e(t,[{key:"setAttribute",value:function(t,n){for(var r=this.list,e=0;e<this.length;e++)r[e].setAttribute(t,n)}},{key:"removeAttribute",value:function(t){for(var n=this.list,r=0;r<this.length;r++)n[r].removeAttribute(t)}},{key:"style",value:function(t,n){for(var r=this.list,e=0;e<this.length;e++)r[e].style[t]=n}}]),t}(),mt=/-./g,pt=function(t,n){return n.toUpperCase()};function bt(t){return"function"==typeof t?t:y}function wt(t){return t?"function"==typeof t?t:Array.isArray(t)?function(t){var n=arguments.length>1&&void 0!==arguments[1]?arguments[1]:o;if(!Array.isArray(t))return n;switch(t.length){case 1:return c(t[0])||n;case 2:return c(t[0],t[1])||n;case 4:return l(t[0],t[1],t[2],t[3])||n}return n}(t,null):function(t,n){var r=arguments.length>2&&void 0!==arguments[2]?arguments[2]:o;switch(t){case"linear":return o;case"steps":return c(n.steps||1,n.jump||0)||r;case"bezier":case"cubic-bezier":return l(n.x1||0,n.y1||0,n.x2||0,n.y2||0)||r}return r}(t.type,t.value,null):null}function At(t,n,r){var e=arguments.length>3&&void 0!==arguments[3]&&arguments[3],i=n.length-1;if(t<=n[0].t)return e?[0,0,n[0].v]:n[0].v;if(t>=n[i].t)return e?[i,1,n[i].v]:n[i].v;var u,o=n[0],a=null;for(u=1;u<=i;u++){if(!(t>n[u].t)){a=n[u];break}o=n[u]}return null==a?e?[i,1,n[i].v]:n[i].v:o.t===a.t?e?[u,1,a.v]:a.v:(t=(t-o.t)/(a.t-o.t),o.e&&(t=o.e(t)),e?[u,t,r(t,o.v,a.v)]:r(t,o.v,a.v))}function xt(t,n){var r=arguments.length>2&&void 0!==arguments[2]?arguments[2]:null;return t&&t.length?"function"!=typeof n?null:("function"!=typeof r&&(r=null),function(e){var i=At(e,t,n);return null!=i&&r&&(i=r(i)),i}):null}function kt(t,n){return t.t-n.t}function St(n,r,e,i,u){var o,a="@"===e[0],l="#"===e[0],f=dt[e],s=y;switch(a?(o=e.substr(1),e=o.replace(mt,pt)):l&&(e=e.substr(1)),t(f)){case"function":if(s=f(i,u,At,wt,e,a,r,n),l)return s;break;case"string":s=xt(i,bt(f));break;case"object":if((s=xt(i,bt(f.i),f.f))&&"function"==typeof f.u)return f.u(r,s,e,a,n)}return s?function(t,n,r){if(arguments.length>3&&void 0!==arguments[3]&&arguments[3])return t instanceof gt?function(e){return t.style(n,r(e))}:function(e){return t.style[n]=r(e)};if(Array.isArray(n)){var e=n.length;return function(i){var u=r(i);if(null==u)for(var o=0;o<e;o++)t[o].removeAttribute(n);else for(var a=0;a<e;a++)t[a].setAttribute(n,u)}}return function(e){var i=r(e);null==i?t.removeAttribute(n):t.setAttribute(n,i)}}(r,e,s,a):null}function _t(n,r,e,i){if(!i||"object"!==t(i))return null;var u=null,o=null;return Array.isArray(i)?o=function(t){if(!t||!t.length)return null;for(var n=0;n<t.length;n++)t[n].e&&(t[n].e=wt(t[n].e));return t.sort(kt)}(i):(o=i.keys,u=i.data||null),o?St(n,r,e,o,u):null}function Mt(t,n,r){if(!r)return null;var e=[];for(var i in r)if(r.hasOwnProperty(i)){var u=_t(t,n,i,r[i]);u&&e.push(u)}return e.length?e:null}function It(t,n){if(!n.duration||n.duration<0)return null;var r=function(t,n){if(!n)return null;var r=[];if(Array.isArray(n))for(var e=n.length,i=0;i<e;i++){var u=n[i];if(2===u.length){var o=null;if("string"==typeof u[0])o=t.getElementById(u[0]);else if(Array.isArray(u[0])){o=[];for(var a=0;a<u[0].length;a++)if("string"==typeof u[0][a]){var l=t.getElementById(u[0][a]);l&&o.push(l)}o=o.length?1===o.length?o[0]:new gt(o):null}if(o){var f=Mt(t,o,u[1]);f&&(r=r.concat(f))}}}else for(var s in n)if(n.hasOwnProperty(s)){var c=t.getElementById(s);if(c){var v=Mt(t,c,n[s]);v&&(r=r.concat(v))}}return r.length?r:null}(t,n.elements);return r?function(t,n){var r=arguments.length>2&&void 0!==arguments[2]?arguments[2]:1/0,e=arguments.length>3&&void 0!==arguments[3]?arguments[3]:1,i=arguments.length>4&&void 0!==arguments[4]&&arguments[4],u=arguments.length>5&&void 0!==arguments[5]?arguments[5]:1,o=t.length,a=e>0?n:0;i&&r%2==0&&(a=n-a);var l=null;return function(f,s){var c=f%n,v=1+(f-c)/n;s*=e,i&&v%2==0&&(s=-s);var h=!1;if(v>r)c=a,h=!0,-1===u&&(c=e>0?0:n);else if(s<0&&(c=n-c),c===l)return!1;l=c;for(var y=0;y<o;y++)t[y](c);return h}}(r,n.duration,n.iterations||1/0,n.direction||1,!!n.alternate,n.fill||1):null}var Et=function(){function t(r){var e=arguments.length>1&&void 0!==arguments[1]?arguments[1]:{};n(this,t),this._id=0,this._running=!1,this._animations=r,this.direction=e.direction||1,this.speed=e.speed||1,this.fps=e.fps||100,this.offset=e.offset||0}return e(t,[{key:"_start",value:function(){var t=this,n=arguments.length>0&&void 0!==arguments[0]?arguments[0]:0,r=-1/0,e=null,i={},u=function u(o){t._running=!0,null==e&&(e=o);var a=Math.round((o-e+n)*t.speed),l=t.fps?1e3/t.fps:0;if(a>r+l){t.offset=a,r=a;for(var f=t._animations,s=f.length,c=0,v=0;v<s;v++)i[v]?c++:(i[v]=f[v](a,t.direction),i[v]&&c++);if(c===s)return void t._stop()}t._id=window.requestAnimationFrame(u)};this._id=window.requestAnimationFrame(u)}},{key:"_stop",value:function(){this._id&&window.cancelAnimationFrame(this._id),this._running=!1}},{key:"play",value:function(){this._running||this._start(this.offset)}},{key:"stop",value:function(){this._stop(),this.offset=0;var t=this.direction,n=this._animations;requestAnimationFrame((function(){for(var r=0;r<n.length;r++)n[r](0,t)}))}},{key:"restart",value:function(){this._stop(),this.offset=0,this._start()}},{key:"pause",value:function(){this._stop()}},{key:"reverse",value:function(){this.direction=-this.direction}}],[{key:"build",value:function(n){if(!(n=function(t){if(!t||!t.root||!Array.isArray(t.animations))return null;var n=window.document.getElementById(t.root);if(!n)return null;var r=t.animations.map((function(t){return It(n,t)})).filter((function(t){return!!t}));return r.length?{element:n,animations:r,options:t.options||void 0}:null}(n)))return null;var r=n.element,e=n.options||{},i=new t(n.animations,n.options);return function(t,n,r){var e=arguments.length>3&&void 0!==arguments[3]?arguments[3]:null;if("click"===r){return void n.addEventListener("click",(function r(){n.removeEventListener("click",r),t.play()}))}if("hover"===r)return n.addEventListener("mouseenter",(function(){return t.play()})),void n.addEventListener("mouseleave","freeze"===e?function(){return t.pause()}:function(){return t.stop()});t.play()}(i,r,e.start,e.hover),i}}]),t}();return function(){for(var t=0,n=["ms","moz","webkit","o"],r=0;r<n.length&&!window.requestAnimationFrame;++r)window.requestAnimationFrame=window[n[r]+"RequestAnimationFrame"],window.cancelAnimationFrame=window[n[r]+"CancelAnimationFrame"]||window[n[r]+"CancelRequestAnimationFrame"];window.requestAnimationFrame||(window.requestAnimationFrame=function(n){var r=Date.now(),e=Math.max(0,16-(r-t)),i=window.setTimeout((function(){n(r+e)}),e);return t=r+e,i},window.cancelAnimationFrame=window.clearTimeout)}(),Et}));
__SVGATOR_PLAYER__.build({"root":"egosgjvfklwv1","animations":[{"duration":1000,"direction":1,"iterations":1,"fill":1,"alternate":false,"elements":{"egosgjvfklwv2":{"transform":{"data":{"t":{"x":-255.96150207333292,"y":-255.96152496499997}},"keys":{"o":[{"t":0,"v":{"x":119.99999999999974,"y":262.47352188500076,"type":"corner"}},{"t":700,"v":{"x":119.9999999999998,"y":96.23855403500083,"type":"corner"}},{"t":1000,"v":{"x":119.99999999999982,"y":119.99999799500081,"type":"corner"}}],"s":[{"t":0,"v":{"x":0.08,"y":0.08}},{"t":1000,"v":{"x":0.15,"y":0.15}}]}}}}}],"options":{"start":"load","hover":"restart"}})]]></script></svg>